<?xml version="1.0" encoding="UTF-8" standalone="no"?>
<svg
   xmlns:dc="http://purl.org/dc/elements/1.1/"
   xmlns:cc="http://creativecommons.org/ns#"
   xmlns:rdf="http://www.w3.org/1999/02/22-rdf-syntax-ns#"
   xmlns:svg="http://www.w3.org/2000/svg"
   xmlns="http://www.w3.org/2000/svg"
   xmlns:sodipodi="http://sodipodi.sourceforge.net/DTD/sodipodi-0.dtd"
   xmlns:inkscape="http://www.inkscape.org/namespaces/inkscape"
   inkscape:version="1.0rc1 (09960d6, 2020-04-09)"
   sodipodi:docname="deployment.svg"
   id="svg198"
   version="1.1"
   fill="none"
   viewBox="0 0 36 36"
   height="36"
   width="36">
  <metadata
     id="metadata204">
    <rdf:RDF>
      <cc:Work
         rdf:about="">
        <dc:format>image/svg+xml</dc:format>
        <dc:type
           rdf:resource="http://purl.org/dc/dcmitype/StillImage" />
      </cc:Work>
    </rdf:RDF>
  </metadata>
  <defs
     id="defs202" />
  <sodipodi:namedview
     inkscape:current-layer="svg198"
     inkscape:window-maximized="1"
     inkscape:window-y="23"
     inkscape:window-x="1680"
     inkscape:cy="18"
     inkscape:cx="-7.4779412"
     inkscape:zoom="7.5555556"
     showgrid="false"
     id="namedview200"
     inkscape:window-height="1395"
     inkscape:window-width="2560"
     inkscape:pageshadow="2"
     inkscape:pageopacity="0"
     guidetolerance="10"
     gridtolerance="10"
     objecttolerance="10"
     borderopacity="1"
     bordercolor="#666666"
     pagecolor="#ffffff" />
  <rect
     id="rect194"
     fill="white"
     height="36"
     width="36" />
  <path
     style="fill:#056dff;fill-opacity:1"
     id="path196"
     fill="#21125E"
     d="M0 0H36V11.5312V12.9375V23.0625V24.4688V36H0V24.4688V23.0625V12.9375V11.5312V0ZM1.40625 23.0625H34.5938V12.9375H1.40625V23.0625ZM1.40625 24.4688V34.5938H34.5938V24.4688H1.40625ZM1.40625 11.5312H34.5938V1.40625H1.40625V11.5312ZM7.45312 7.59375C8.07445 7.59375 8.57812 7.09007 8.57812 6.46875C8.57812 5.84743 8.07445 5.34375 7.45312 5.34375C6.8318 5.34375 6.32812 5.84743 6.32812 6.46875C6.32812 7.09007 6.8318 7.59375 7.45312 7.59375ZM7.45312 9C8.8511 9 9.98438 7.86672 9.98438 6.46875C9.98438 5.07078 8.8511 3.9375 7.45312 3.9375C6.05515 3.9375 4.92188 5.07078 4.92188 6.46875C4.92188 7.86672 6.05515 9 7.45312 9ZM15.8906 7.17188H31.0781V5.76562H15.8906V7.17188ZM31.0781 30.2344H15.8906V28.8281H31.0781V30.2344ZM7.45312 19.125C8.07445 19.125 8.57812 18.6213 8.57812 18C8.57812 17.3787 8.07445 16.875 7.45312 16.875C6.8318 16.875 6.32812 17.3787 6.32812 18C6.32812 18.6213 6.8318 19.125 7.45312 19.125ZM7.45312 20.5312C8.8511 20.5312 9.98438 19.398 9.98438 18C9.98438 16.602 8.8511 15.4688 7.45312 15.4688C6.05515 15.4688 4.92188 16.602 4.92188 18C4.92188 19.398 6.05515 20.5312 7.45312 20.5312ZM7.45312 30.6562C8.07445 30.6562 8.57812 30.1526 8.57812 29.5312C8.57812 28.9099 8.07445 28.4062 7.45312 28.4062C6.8318 28.4062 6.32812 28.9099 6.32812 29.5312C6.32812 30.1526 6.8318 30.6562 7.45312 30.6562ZM7.45312 32.0625C8.8511 32.0625 9.98438 30.9292 9.98438 29.5312C9.98438 28.1333 8.8511 27 7.45312 27C6.05515 27 4.92188 28.1333 4.92188 29.5312C4.92188 30.9292 6.05515 32.0625 7.45312 32.0625ZM15.8906 18.7031H31.0781V17.2969H15.8906V18.7031Z"
     clip-rule="evenodd"
     fill-rule="evenodd" />
</svg>
