<svg width="21" height="21" viewBox="0 0 21 21" fill="none" xmlns="http://www.w3.org/2000/svg">
<path d="M17.058 0.0126953H4.20089C2.07142 0.0126953 0.34375 1.74037 0.34375 3.86984V16.727C0.34375 18.8564 2.07142 20.5841 4.20089 20.5841H11.3259V12.6154H8.64732V9.50823H11.3259V7.21805C11.3259 4.56627 12.9598 3.11984 15.3304 3.11984C16.4554 3.11984 17.433 3.2002 17.7143 3.24037V6.0127L16.0804 6.02609C14.7813 6.02609 14.5402 6.62877 14.5402 7.52609V9.50823H17.6071L17.2054 12.6154H14.5402V20.5841H17.058C19.1875 20.5841 20.9152 18.8564 20.9152 16.727V3.86984C20.9152 1.74037 19.1875 0.0126953 17.058 0.0126953Z" fill="#3D385C"/>
</svg>
