<svg width="98" height="26" viewBox="0 0 98 26" fill="none" xmlns="http://www.w3.org/2000/svg">
  <path d="M22.95 9.38867H6.02171L0 16.5561H16.9283L22.95 9.38867Z" fill="#161A1E" />
  <path fill-rule="evenodd" clip-rule="evenodd"
    d="M47.5108 17.0624C45.7421 17.0624 45.1091 16.6789 45.1091 15.4016C45.1091 14.2517 45.7421 13.7912 47.6425 13.7912H49.5421V15.1203C49.5421 16.3975 48.9091 17.0624 47.5108 17.0624ZM45.8744 19.8739C47.9323 19.8739 48.8559 19.209 49.5162 18.2382V19.7234H53.2364V10.4436C53.2364 7.35227 52.0489 5.79364 47.9323 5.79364C43.9474 5.79364 41.9901 7.15667 41.9901 10.2393L45.6692 10.2852C45.6951 10.1571 45.7425 9.99289 45.7723 9.88367C46.0158 8.99049 46.4368 8.70654 47.8007 8.70654C49.2781 8.70654 49.5162 9.31964 49.5162 10.3422V11.2877H47.7741C43.0512 11.2877 41.4414 12.7183 41.4414 15.6319C41.4414 18.4937 42.8929 19.8739 45.8744 19.8739Z"
    fill="#161A1E" />
  <path
    d="M35.8791 15.3383H35.8785C35.6108 14.9089 34.986 14.7254 33.939 14.5301C33.8193 14.5099 33.6975 14.4899 33.5742 14.4696C31.1967 14.0785 28.2412 13.5923 28.2658 10.288C28.2658 7.60451 29.744 5.91846 33.939 5.91846C37.7651 5.91846 39.4391 7.55415 39.5099 10.2888L35.9052 10.3642C35.7728 9.16392 35.288 8.75446 33.8638 8.75446C32.7021 8.75446 31.9602 9.06173 31.9602 9.87921C31.9602 10.9773 32.7781 11.1313 34.5728 11.4379C36.8671 11.8126 39.6194 12.3816 39.745 15.3383L39.745 15.3389C39.7496 15.4336 39.7516 15.5308 39.7508 15.6305C39.7508 18.3139 38.2726 20 34.0776 20C30.2515 20 28.4586 18.3643 28.3878 15.6297L32.052 15.5542C32.1843 16.7545 32.7583 17.164 34.1826 17.164C35.3443 17.164 36.0564 16.8567 36.0564 16.0392C36.0564 15.7466 35.9983 15.5176 35.8791 15.3383Z"
    fill="#161A1E" />
  <path d="M55.3203 4.53133L59.1204 0V19.7282H55.3203V4.53133Z" fill="#161A1E" />
  <path fill-rule="evenodd" clip-rule="evenodd"
    d="M80.5016 19.9426C84.8555 19.9426 86.6494 17.719 86.6494 14.7299V11.0499C86.6494 8.00888 84.8555 5.83716 80.5016 5.83716C76.1477 5.83716 74.4062 8.00888 74.4062 11.0499V14.7299C74.4062 17.7198 76.1211 19.9426 80.5016 19.9426ZM80.5016 16.9779C78.9709 16.9779 78.2056 16.1863 78.2056 14.9083V10.9729C78.2056 9.67042 78.9709 8.87815 80.5009 8.87815C82.0315 8.87815 82.8493 9.6697 82.8493 10.9736V14.9083C82.8493 16.1863 82.0315 16.9779 80.5016 16.9779Z"
    fill="#161A1E" />
  <path fill-rule="evenodd" clip-rule="evenodd"
    d="M64.6911 11.4075V10.7174C64.6911 9.51642 65.245 8.69825 66.9073 8.69825C68.5171 8.69825 69.045 9.38906 69.045 10.7174V11.4075H64.6911ZM66.9065 19.9426C70.4502 19.9426 71.8869 18.6047 72.4463 17.0113C72.5619 16.682 72.64 16.3418 72.6915 16.0002C72.7047 15.792 72.7087 15.6581 72.712 15.5838L69.0689 15.4946C69.0689 15.5094 69.063 15.5541 69.063 15.5541C69.063 15.5541 69.0182 15.8331 68.9842 15.9704C68.7864 16.7699 68.3501 17.1829 66.9073 17.1829C65.0867 17.1829 64.6904 16.2885 64.6904 15.1127V13.9887H72.712V11.5349C72.712 8.11107 71.3669 5.83716 66.9073 5.83716C62.5001 5.83716 60.9961 8.13697 60.9961 11.0499V14.7299C60.9961 17.5658 62.526 19.9426 66.9065 19.9426Z"
    fill="#161A1E" />
  <path d="M97.2284 5.95605L94.0942 9.69278L94.0629 9.72455H92.0266V19.7284H88.2266V9.71949L91.3832 5.95605H97.2284Z"
    fill="#161A1E" />
</svg>