<?xml version="1.0" encoding="utf-8"?>
<!-- Generator: Adobe Illustrator 24.0.3, SVG Export Plug-In . SVG Version: 6.00 Build 0)  -->
<svg version="1.1" id="Layer_1" xmlns="http://www.w3.org/2000/svg" xmlns:xlink="http://www.w3.org/1999/xlink" x="0px" y="0px"
	 viewBox="0 0 220 67" style="enable-background:new 0 0 220 67;" xml:space="preserve">
<style type="text/css">
	.st0{fill-rule:evenodd;clip-rule:evenodd;fill:#FFFFFF;filter:url(#Adobe_OpacityMaskFilter);}
	.st1{mask:url(#mask0_1_);}
	.st2{fill-rule:evenodd;clip-rule:evenodd;fill:#28234A;}
	.st3{fill-rule:evenodd;clip-rule:evenodd;fill:#8AC4EB;}
	.st4{fill:none;stroke:#28234A;stroke-width:1.6067;stroke-linecap:round;stroke-linejoin:round;}
	.st5{fill:#28234A;}
</style>
<g>
	<defs>
		<filter id="Adobe_OpacityMaskFilter" filterUnits="userSpaceOnUse" x="21.2" y="12.3" width="111.5" height="34.2">
			<feColorMatrix  type="matrix" values="1 0 0 0 0  0 1 0 0 0  0 0 1 0 0  0 0 0 1 0"/>
		</filter>
	</defs>
	<mask maskUnits="userSpaceOnUse" x="21.2" y="12.3" width="111.5" height="34.2" id="mask0_1_">
		<path class="st0" d="M9.9,3.6h129.2v42.9H9.9V3.6z"/>
	</mask>
	<g class="st1">
		<path class="st2" d="M31.4,46.4c7.9,0,9.9-3.2,9.9-7.6c0-5.4-4.9-6.4-8.9-7.1C29.4,31.2,28,31,28,29.1c0-1.4,1.2-1.9,3.2-1.9
			c2.4,0,3.1,0.7,3.4,2.8l6.4-1c-0.5-4.4-3-6.7-9.6-6.7c-7.2,0-9.7,2.9-9.7,7.5c0,6,5.6,6.6,9.7,7.3C34,37.6,35,38,35,39.7
			c0,1.4-0.9,2-3.4,2c-2.9,0-3.7-0.5-4.1-2.8l-6.3,0.9C21.8,44.5,24.5,46.4,31.4,46.4z"/>
		<path class="st2" d="M52.2,41.6c-3,0-4.1-0.7-4.1-2.9c0-2,1.1-2.8,4.4-2.8h3.3v2.3C55.7,40.5,54.6,41.6,52.2,41.6z M49.4,46.4
			c3.5,0,5.1-1.1,6.3-2.8v2.5H62V30.2c0-5.3-2-8-9.1-8c-6.8,0-9.2,1.9-10.2,6.7l6.3,1c0.4-2,1-2.6,3.6-2.6c2.5,0,2.9,1.1,2.9,2.8
			v1.6h-3c-8.1,0-10.9,2.5-10.9,7.5C41.7,44.1,44.2,46.4,49.4,46.4z"/>
		<path class="st2" d="M63.6,46.1h6.5V12.3l-6.5,6.5V46.1z"/>
		<path class="st2" d="M78.1,31.8v-1.2c0-2.1,1-3.5,3.8-3.5c2.8,0,3.7,1.2,3.7,3.5v1.2H78.1z M82,46.5c7.5,0,9.5-3.5,10-7l-6.2-0.9
			c-0.3,2.1-0.7,3.2-3.8,3.2c-3.1,0-3.8-1.5-3.8-3.6v-1.9h13.8V32c0-5.9-2.3-9.8-10-9.8c-7.6,0-10.2,4-10.2,9v6.3
			C71.8,42.4,74.4,46.5,82,46.5z"/>
		<path class="st2" d="M104,46.5c7.5,0,10.6-3.8,10.6-9v-6.3c0-5.2-3.1-9-10.6-9c-7.5,0-10.5,3.7-10.5,9v6.3
			C93.6,42.7,96.5,46.5,104,46.5z M104,41.4c-2.6,0-3.9-1.4-3.9-3.6v-6.8c0-2.2,1.3-3.6,3.9-3.6c2.6,0,4,1.4,4,3.6v6.8
			C108.1,40,106.7,41.4,104,41.4z"/>
		<path class="st2" d="M126.3,28.9h-3.5v17h-6.5v-17h0l6.4-6.5h10L126.3,28.9z"/>
	</g>
	<path class="st3" d="M39.4,2l-8.6,9H52l8.6-9H39.4z"/>
	<path class="st4" d="M21.7,5.7l-8.1,8h27.9l8.1-8H21.7z"/>
	<path class="st5" d="M142.6,46.2c3.1,0,5.4-1,6.6-2.9v2.6h2.8V11.6l-2.8,3.7v10.3c-1.2-1.8-3.4-2.8-6.5-2.8c-5.9,0-8,3.5-8,8.7v6.1
		C134.7,42.7,136.7,46.2,142.6,46.2z M143.2,43.6c-4,0-5.6-2.2-5.6-5.8v-6.6c0-3.5,1.6-5.9,5.6-5.9c4,0,6.1,2.3,6.1,5.9v6.9
		C149.2,41.5,147,43.6,143.2,43.6z"/>
	<path class="st5" d="M162.5,43.9c-4,0-5.8-2.3-5.8-5.8v-6.6c0-3.6,1.9-5.9,5.8-5.9c4,0,5.8,2.3,5.8,5.9v6.6
		C168.3,41.6,166.4,43.9,162.5,43.9z M162.5,46.5c5.9,0,8.6-3.5,8.6-8.7v-6.1c0-5.2-2.8-8.7-8.6-8.7c-5.9,0-8.6,3.4-8.6,8.7v6.1
		C153.9,43,156.5,46.5,162.5,46.5z"/>
	<path class="st5" d="M181.3,46.5c6.2,0,7.6-3.7,7.9-6.6l-2.7-0.4c-0.4,2.4-0.9,4.3-5.2,4.3c-3.7,0-5.4-2.3-5.4-5.8v-6.6
		c0-3.6,1.6-5.9,5.4-5.9c3.7,0,5,1.6,5.3,4.6l2.8-0.4c-0.4-3.8-2.3-6.7-8.1-6.7c-5.7,0-8.2,3.4-8.2,8.7v6.1
		C173.1,43,175.5,46.5,181.3,46.5z"/>
	<path class="st5" d="M198.5,46.5c5.3,0,8-2.2,8-6.4c0-5.2-3.8-5.9-7.4-6.7c-2.9-0.6-5.3-1.3-5.3-4.3c0-2.4,1.6-3.5,4.9-3.5
		c3.2,0,4.4,1.3,4.8,4.2l2.8-0.4c-0.4-3.7-2.4-6.3-7.5-6.3c-4.1,0-7.6,1.5-7.7,6.1c0,5.2,3.8,5.9,7.4,6.7c2.8,0.6,5.2,1.2,5.2,4.2
		c0,2.9-1.7,3.8-5.2,3.8c-3.7,0-4.7-1.2-5.2-4.4l-2.7,0.4C191,44,192.9,46.5,198.5,46.5z"/>
</g>
</svg>
