<svg width="22" height="21" viewBox="0 0 22 21" fill="none" xmlns="http://www.w3.org/2000/svg">
<path d="M17.9085 6.46805C17.5335 7.04395 17.0513 7.53948 16.5022 7.92787C16.5156 8.04841 16.5156 8.16895 16.5156 8.28948C16.5156 12.0127 13.6763 16.2984 8.5067 16.2984C6.91295 16.2984 5.43973 15.8297 4.19419 15.0395C4.40848 15.0663 4.63616 15.0797 4.86384 15.0797C6.18973 15.0797 7.39509 14.6243 8.35938 13.8743C7.12723 13.8475 6.09598 13.0306 5.73438 11.9189C5.90848 11.9457 6.08259 11.9725 6.25669 11.9725C6.51116 11.9725 6.69866 11.9323 6.93973 11.8654C5.65402 11.6109 4.62277 10.4725 4.62277 9.10645C4.62277 9.09305 4.62277 9.07966 4.62277 9.07966C5.05134 9.28055 5.49331 9.41448 5.96206 9.42788C5.19866 8.91895 4.74331 8.0618 4.74331 7.08412C4.74331 6.5752 4.89062 6.07966 5.13169 5.66448C6.52455 7.37877 8.60045 8.49037 10.9442 8.61091C10.8906 8.41002 10.8772 8.18234 10.8772 7.96805C10.8772 6.41448 12.1362 5.15555 13.6897 5.15555C14.4933 5.15555 15.2299 5.49037 15.7388 6.03948C16.3817 5.91895 16.9844 5.67787 17.5335 5.35645C17.3192 6.0127 16.8772 6.5752 16.2879 6.92341C16.8638 6.84305 17.3996 6.69573 17.9085 6.46805ZM21.3371 3.86984C21.3371 1.74037 19.6094 0.0126953 17.4799 0.0126953H4.62277C2.4933 0.0126953 0.765625 1.74037 0.765625 3.86984V16.727C0.765625 18.8564 2.4933 20.5841 4.62277 20.5841H17.4799C19.6094 20.5841 21.3371 18.8564 21.3371 16.727V3.86984Z" fill="#3D385C"/>
</svg>
