<svg width="25" height="20" viewBox="0 0 25 20" fill="none" xmlns="http://www.w3.org/2000/svg">
<path d="M22.1848 5.55196C22.438 4.79227 22.5647 4.00475 22.5647 3.1891C22.5647 2.10143 22.3254 1.07938 21.8473 0.123047C20.8443 0.123047 19.9582 0.306049 19.1892 0.671608C18.4205 1.03727 17.5439 1.6045 16.5597 2.3733C15.3222 2.07331 14.0092 1.92331 12.6218 1.92331C11.1028 1.92331 9.65411 2.08749 8.27591 2.41562C7.27278 1.62795 6.38674 1.04914 5.61788 0.678702C4.84903 0.308265 3.95836 0.123096 2.94567 0.123096C2.4675 1.07943 2.22844 2.10153 2.22844 3.18915C2.22844 4.01431 2.35494 4.81129 2.60813 5.57999C1.33284 7.0709 0.695312 8.92727 0.695312 11.1494C0.695312 13.0999 0.985849 14.6515 1.56727 15.8049C1.87677 16.4141 2.27982 16.9532 2.7768 17.4222C3.27359 17.8908 3.84087 18.2708 4.47849 18.5616C5.11622 18.852 5.75832 19.0936 6.40536 19.2857C7.05234 19.4778 7.7672 19.6186 8.55014 19.7073C9.33304 19.7967 10.0245 19.8552 10.6245 19.8836C11.2246 19.9114 11.8902 19.9256 12.6217 19.9256C13.4842 19.9256 14.2668 19.9043 14.9704 19.8624C15.6737 19.8203 16.4774 19.7169 17.3823 19.5532C18.2871 19.389 19.0841 19.1662 19.7734 18.885C20.4626 18.6038 21.1238 18.2005 21.7566 17.6756C22.3894 17.1504 22.8839 16.527 23.2404 15.8049C23.812 14.6422 24.0981 13.0903 24.0981 11.1495C24.0977 8.91791 23.4602 7.05213 22.1848 5.55196ZM20.4977 15.7834C20.1976 16.3978 19.8178 16.8802 19.3584 17.2322C18.8989 17.5839 18.327 17.865 17.6426 18.0763C16.9579 18.2871 16.3019 18.4254 15.6737 18.4908C15.0452 18.5565 14.3469 18.5892 13.5779 18.5892H11.2151C10.4463 18.5892 9.74761 18.5565 9.11949 18.4908C8.49133 18.4254 7.83503 18.2871 7.15051 18.0763C6.46624 17.865 5.89438 17.5839 5.43483 17.2322C4.97528 16.8802 4.59559 16.3978 4.29554 15.7834C3.99555 15.1691 3.8455 14.4497 3.8455 13.6247C3.8455 12.4992 4.16899 11.5427 4.81603 10.7555C5.46301 9.96784 6.33959 9.57415 7.44588 9.57415C7.84922 9.57415 8.76339 9.67253 10.1885 9.86947C10.8542 9.97257 11.5903 10.0241 12.3965 10.0241C13.203 10.0241 13.939 9.97272 14.6046 9.86947C16.0487 9.67248 16.9626 9.57415 17.3473 9.57415C18.4535 9.57415 19.3301 9.96804 19.9771 10.7555C20.6241 11.5431 20.9474 12.4992 20.9474 13.6247C20.9474 14.4498 20.7974 15.1697 20.4977 15.7834Z" fill="#3D385C"/>
<path d="M8.91419 11.4022C8.62818 11.0833 8.28843 10.9238 7.89455 10.9238C7.50057 10.9238 7.16077 11.0835 6.87482 11.4022C6.58901 11.7209 6.38729 12.0773 6.27015 12.4706C6.15276 12.8648 6.09424 13.2492 6.09424 13.6244C6.09424 13.9993 6.15291 14.3837 6.27015 14.7778C6.38714 15.1714 6.58876 15.5276 6.87482 15.8462C7.16092 16.1652 7.50057 16.3247 7.89455 16.3247C8.28843 16.3247 8.62833 16.1649 8.91419 15.8462C9.20009 15.5276 9.40171 15.1714 9.51886 14.7778C9.63609 14.3837 9.69476 13.9993 9.69476 13.6244C9.69476 13.2495 9.63624 12.8648 9.51886 12.4706C9.40167 12.0774 9.20024 11.7212 8.91419 11.4022Z" fill="#3D385C"/>
<path d="M17.9156 11.4022C17.6297 11.0833 17.2899 10.9238 16.8961 10.9238C16.5024 10.9238 16.1624 11.0835 15.8763 11.4022C15.5904 11.7209 15.3889 12.0773 15.2719 12.4706C15.1544 12.8648 15.0957 13.2492 15.0957 13.6244C15.0957 13.9993 15.1544 14.3837 15.2719 14.7778C15.3889 15.1714 15.5905 15.5276 15.8763 15.8462C16.1624 16.1652 16.5024 16.3247 16.8961 16.3247C17.2899 16.3247 17.6297 16.1649 17.9156 15.8462C18.2014 15.5276 18.4031 15.1714 18.5204 14.7778C18.6376 14.3837 18.6962 13.9993 18.6962 13.6244C18.6962 13.2495 18.6376 12.8648 18.5204 12.4706C18.4031 12.0774 18.2014 11.7212 17.9156 11.4022Z" fill="#3D385C"/>
</svg>
