<svg width="159" height="36" viewBox="0 0 159 36" fill="none" xmlns="http://www.w3.org/2000/svg">
<mask id="mask0" mask-type="alpha" maskUnits="userSpaceOnUse" x="0" y="1" width="105" height="35">
<path fill-rule="evenodd" clip-rule="evenodd" d="M0 1.30762H104.531V35.9998H0V1.30762Z" fill="white"/>
</mask>
<g mask="url(#mask0)">
<path fill-rule="evenodd" clip-rule="evenodd" d="M17.3951 35.964C23.8149 35.964 25.4291 33.3716 25.4291 29.8204C25.4291 25.4523 21.5038 24.6357 18.2388 24.1029C15.7443 23.6768 14.607 23.4639 14.607 21.9368C14.607 20.8006 15.5974 20.3742 17.2117 20.3742C19.1927 20.3742 19.7429 20.9425 19.9264 22.6114L25.1357 21.8302C24.6952 18.2435 22.6776 16.4326 17.3584 16.4326C11.5256 16.4326 9.47127 18.7763 9.47127 22.5048C9.4347 27.3346 13.9835 27.8318 17.3584 28.3998C19.4492 28.7906 20.2566 29.1456 20.2566 30.5307C20.2566 31.667 19.5597 32.1642 17.4684 32.1642C15.1574 32.1642 14.4604 31.7736 14.1669 29.8915L9.10449 30.6372C9.58134 34.437 11.8191 35.964 17.3951 35.964Z" fill="#28234A"/>
<path fill-rule="evenodd" clip-rule="evenodd" d="M34.1877 32.0579C31.7296 32.0579 30.8494 31.5253 30.8494 29.7496C30.8494 28.1516 31.7296 27.5124 34.3711 27.5124H37.0124V29.359C37.0124 31.1345 36.132 32.0579 34.1877 32.0579ZM31.9131 35.9645C34.7745 35.9645 36.0586 35.0411 36.9757 33.6916V35.7159H42.148V22.8605C42.148 18.5637 40.4972 16.3975 34.7745 16.3975C29.2351 16.3975 27.291 17.9599 26.5205 21.7953L31.6564 22.5765C31.9864 20.943 32.4635 20.4456 34.5911 20.4456C36.6455 20.4456 36.9757 21.2979 36.9757 22.7187V24.0327H34.5544C27.9879 24.0327 25.75 26.0211 25.75 30.0695C25.75 34.0468 27.7678 35.9645 31.9131 35.9645Z" fill="#28234A"/>
<path fill-rule="evenodd" clip-rule="evenodd" d="M43.4685 35.7156H48.7512V8.31689L43.4685 13.5542V35.7156Z" fill="#28234A"/>
<path fill-rule="evenodd" clip-rule="evenodd" d="M55.2082 24.1386V23.18C55.2082 21.511 55.9787 20.3743 58.2897 20.3743C60.5275 20.3743 61.2614 21.3334 61.2614 23.18V24.1386H55.2082ZM58.2888 36C64.3786 36 65.9927 33.1589 66.3595 30.318L61.3338 29.5723C61.1137 31.2769 60.7835 32.1646 58.2888 32.1646C55.7578 32.1646 55.2073 30.9217 55.2073 29.2882V27.7258H66.3595V24.3166C66.3595 19.558 64.4885 16.3975 58.2888 16.3975C52.1627 16.3975 50.0715 19.5936 50.0715 23.642V28.7556C50.0715 32.6974 52.1992 36 58.2888 36Z" fill="#28234A"/>
<path fill-rule="evenodd" clip-rule="evenodd" d="M76.1544 36.0001C82.2072 36.0001 84.7017 32.9106 84.7017 28.7557V23.6421C84.7017 19.4162 82.2072 16.3975 76.1544 16.3975C70.1011 16.3975 67.6802 19.4162 67.6802 23.6421V28.7557C67.6802 32.9106 70.0646 36.0001 76.1544 36.0001ZM76.1538 31.8806C74.026 31.8806 72.9622 30.7799 72.9622 29.0042V23.5355C72.9622 21.7245 74.026 20.6236 76.1538 20.6236C78.2815 20.6236 79.4186 21.7245 79.4186 23.5355V29.0042C79.4186 30.7799 78.2815 31.8806 76.1538 31.8806Z" fill="#28234A"/>
<path fill-rule="evenodd" clip-rule="evenodd" d="M94.1361 21.8167H91.3047V35.6044H86.0222V21.8167H86.022L91.1831 16.5796H99.2972L94.1361 21.8167Z" fill="#28234A"/>
</g>
<path fill-rule="evenodd" clip-rule="evenodd" d="M23.8674 0L16.9148 7.24426H34.0901L41.0428 0H23.8674Z" fill="#8AC4EB"/>
<path fill-rule="evenodd" clip-rule="evenodd" d="M9.49813 2.99756L2.98462 9.49242H25.5739L32.0874 2.99756H9.49813Z" stroke="#28234A" stroke-width="1.3" stroke-linecap="round" stroke-linejoin="round"/>
<path d="M107.337 35.7861C109.858 35.7861 111.73 34.9668 112.703 33.435V35.5724H114.971V7.78613L112.703 10.7861V19.1144C111.694 17.6538 109.966 16.8345 107.481 16.8345C102.728 16.8345 101 19.6844 101 23.8523V28.7683C101 32.9719 102.584 35.7861 107.337 35.7861ZM107.806 33.6844C104.601 33.6844 103.269 31.8676 103.269 28.9821V23.6385C103.269 20.7887 104.601 18.9006 107.806 18.9006C111.01 18.9006 112.703 20.7887 112.703 23.6385V29.1958C112.703 31.9744 110.938 33.6844 107.806 33.6844Z" fill="#28234A"/>
<path d="M123.447 33.8981C120.242 33.8981 118.73 32.0457 118.73 29.1958V23.8523C118.73 20.9668 120.242 19.1144 123.447 19.1144C126.651 19.1144 128.164 20.9668 128.164 23.8523V29.1958C128.164 32.0457 126.651 33.8981 123.447 33.8981ZM123.447 35.9999C128.2 35.9999 130.432 33.15 130.432 28.9821V24.066C130.432 19.8268 128.2 17.0482 123.447 17.0482C118.658 17.0482 116.461 19.8268 116.461 24.066V28.9821C116.461 33.15 118.622 35.9999 123.447 35.9999Z" fill="#28234A"/>
<path d="M138.633 35.9999C143.674 35.9999 144.754 33.0075 145.006 30.692L142.846 30.407C142.522 32.3307 142.09 33.8981 138.633 33.8981C135.608 33.8981 134.276 32.0457 134.276 29.1958V23.8523C134.276 20.9668 135.608 19.1144 138.633 19.1144C141.621 19.1144 142.666 20.3968 142.918 22.8192L145.15 22.463C144.826 19.3637 143.314 17.0482 138.633 17.0482C134.06 17.0482 132.007 19.8268 132.007 24.066V28.9821C132.007 33.15 133.988 35.9999 138.633 35.9999Z" fill="#28234A"/>
<path d="M152.555 35.9999C156.876 35.9999 159 34.1831 159 30.7988C159 26.6309 155.939 26.0253 153.023 25.3841C150.682 24.8854 148.738 24.351 148.738 21.9286C148.738 19.9693 150.07 19.1144 152.699 19.1144C155.255 19.1144 156.299 20.1474 156.551 22.4986L158.784 22.1424C158.424 19.1856 156.876 17.0482 152.699 17.0482C149.35 17.0482 146.541 18.2238 146.505 21.9642C146.469 26.2034 149.602 26.7734 152.519 27.4146C154.823 27.9134 156.731 28.4121 156.731 30.8345C156.731 33.15 155.363 33.8981 152.555 33.8981C149.566 33.8981 148.774 32.9006 148.342 30.3001L146.181 30.6564C146.541 34.005 148.054 35.9999 152.555 35.9999Z" fill="#28234A"/>
</svg>
