<svg width="256" height="246" viewBox="0 0 256 246" fill="none" xmlns="http://www.w3.org/2000/svg">
<path fill-rule="evenodd" clip-rule="evenodd" d="M151.439 103.148L124.667 56.7775L151.439 10.4065L204.984 10.4065L231.756 56.7775L204.984 103.148L151.439 103.148ZM112.65 56.7775L145.431 2.05327e-06L210.992 0L243.772 56.7775L210.992 113.555L145.431 113.555L112.65 56.7775ZM38.7887 169.148L12.0164 122.777L38.7887 76.4065H92.3333L119.106 122.777L92.3333 169.148H38.7887ZM0 122.777L32.7805 66H98.3415L131.122 122.777L98.3415 179.555H32.7805L0 122.777ZM123.993 188.501L150.812 235.323H204.31L231.129 188.501L204.31 141.68H150.812L123.993 188.501ZM144.78 131.273L112 188.501L144.78 245.729H210.341L243.122 188.501L210.341 131.273H144.78ZM87.4146 30.3222C87.4146 32.3338 85.7839 33.9645 83.7724 33.9645C81.7608 33.9645 80.1301 32.3338 80.1301 30.3222C80.1301 28.3106 81.7608 26.6799 83.7724 26.6799C85.7839 26.6799 87.4146 28.3106 87.4146 30.3222ZM97.8211 30.3222C97.8211 38.0811 91.5313 44.371 83.7724 44.371C76.0134 44.371 69.7236 38.0811 69.7236 30.3222C69.7236 22.5633 76.0134 16.2734 83.7724 16.2734C91.5313 16.2734 97.8211 22.5633 97.8211 30.3222ZM241.951 126.582C243.963 126.582 245.594 124.952 245.594 122.94C245.594 120.929 243.963 119.298 241.951 119.298C239.94 119.298 238.309 120.929 238.309 122.94C238.309 124.952 239.94 126.582 241.951 126.582ZM241.951 136.989C249.71 136.989 256 130.699 256 122.94C256 115.181 249.71 108.891 241.951 108.891C234.192 108.891 227.902 115.181 227.902 122.94C227.902 130.699 234.192 136.989 241.951 136.989ZM87.4146 205.151C87.4146 207.163 85.7839 208.794 83.7724 208.794C81.7608 208.794 80.1301 207.163 80.1301 205.151C80.1301 203.14 81.7608 201.509 83.7724 201.509C85.7839 201.509 87.4146 203.14 87.4146 205.151ZM97.8211 205.151C97.8211 212.91 91.5313 219.2 83.7724 219.2C76.0134 219.2 69.7236 212.91 69.7236 205.151C69.7236 197.392 76.0134 191.103 83.7724 191.103C91.5313 191.103 97.8211 197.392 97.8211 205.151Z" fill="#21125E"/>
</svg>
