<?xml version="1.0" encoding="UTF-8" standalone="no"?>
<svg
   xmlns:dc="http://purl.org/dc/elements/1.1/"
   xmlns:cc="http://creativecommons.org/ns#"
   xmlns:rdf="http://www.w3.org/1999/02/22-rdf-syntax-ns#"
   xmlns:svg="http://www.w3.org/2000/svg"
   xmlns="http://www.w3.org/2000/svg"
   xmlns:sodipodi="http://sodipodi.sourceforge.net/DTD/sodipodi-0.dtd"
   xmlns:inkscape="http://www.inkscape.org/namespaces/inkscape"
   inkscape:version="1.0rc1 (09960d6, 2020-04-09)"
   sodipodi:docname="architecture.svg"
   id="svg122"
   version="1.1"
   fill="none"
   viewBox="0 0 36 36"
   height="36"
   width="36">
  <metadata
     id="metadata128">
    <rdf:RDF>
      <cc:Work
         rdf:about="">
        <dc:format>image/svg+xml</dc:format>
        <dc:type
           rdf:resource="http://purl.org/dc/dcmitype/StillImage" />
      </cc:Work>
    </rdf:RDF>
  </metadata>
  <defs
     id="defs126" />
  <sodipodi:namedview
     inkscape:current-layer="svg122"
     inkscape:window-maximized="1"
     inkscape:window-y="23"
     inkscape:window-x="1680"
     inkscape:cy="18"
     inkscape:cx="-7.4779412"
     inkscape:zoom="7.5555556"
     showgrid="false"
     id="namedview124"
     inkscape:window-height="1395"
     inkscape:window-width="2560"
     inkscape:pageshadow="2"
     inkscape:pageopacity="0"
     guidetolerance="10"
     gridtolerance="10"
     objecttolerance="10"
     borderopacity="1"
     bordercolor="#666666"
     pagecolor="#ffffff" />
  <path
     style="fill:#056dff;fill-opacity:1"
     id="path120"
     fill="#21125E"
     d="M25.3125 1.6875H10.6875V5.0625H25.3125V1.6875ZM9 0V6.75H17.2969V13.2188H12.9375V10.6875H0V17.4375H12.9375V14.9062H17.2969V22.4297H12.9375V19.9688H0V26.7188H12.9375V24.1172H17.2969V31.9219H12.9375V29.25H0V36H12.9375V33.6094H17.2969H18.9844H23.0625V36H36V29.25H23.0625V31.9219H18.9844V24.1172H23.0625V26.7188H36V19.9688H23.0625V22.4297H18.9844V14.9062H23.0625V17.4375H36V10.6875H23.0625V13.2188H18.9844V6.75H27V0H9ZM11.25 12.375H1.6875V15.75H11.25V12.375ZM1.6875 21.6562H11.25V25.0312H1.6875V21.6562ZM11.25 30.9375H1.6875V34.3125H11.25V30.9375ZM24.75 12.375H34.3125V15.75H24.75V12.375ZM34.3125 21.6562H24.75V25.0312H34.3125V21.6562ZM24.75 30.9375H34.3125V34.3125H24.75V30.9375Z"
     clip-rule="evenodd"
     fill-rule="evenodd" />
</svg>
