<svg width="36" height="36" viewBox="0 0 36 36" fill="none" xmlns="http://www.w3.org/2000/svg">
<rect width="36" height="36" />
<path fill-rule="evenodd" clip-rule="evenodd" d="M26.4375 10.125C26.4375 14.7849 22.6599 18.5625 18 18.5625C13.3401 18.5625 9.5625 14.7849 9.5625 10.125C9.5625 5.4651 13.3401 1.6875 18 1.6875C22.6599 1.6875 26.4375 5.4651 26.4375 10.125ZM28.125 10.125C28.125 15.7169 23.5919 20.25 18 20.25C12.4081 20.25 7.875 15.7169 7.875 10.125C7.875 4.53312 12.4081 0 18 0C23.5919 0 28.125 4.53312 28.125 10.125ZM1.80712 34.3125C2.62595 28.588 7.54908 24.1875 13.5 24.1875H22.5C28.4509 24.1875 33.3741 28.588 34.1929 34.3125H1.80712ZM22.5 22.5C29.3844 22.5 35.0651 27.6531 35.8956 34.3125C35.9645 34.8653 36 35.4285 36 36H0C0 35.4285 0.0355106 34.8653 0.104446 34.3125C0.934861 27.6531 6.61565 22.5 13.5 22.5H22.5Z" fill="#21125E"/>
</svg>
