<?xml version="1.0" encoding="UTF-8" standalone="no"?>
<svg
   xmlns:dc="http://purl.org/dc/elements/1.1/"
   xmlns:cc="http://creativecommons.org/ns#"
   xmlns:rdf="http://www.w3.org/1999/02/22-rdf-syntax-ns#"
   xmlns:svg="http://www.w3.org/2000/svg"
   xmlns="http://www.w3.org/2000/svg"
   xmlns:sodipodi="http://sodipodi.sourceforge.net/DTD/sodipodi-0.dtd"
   xmlns:inkscape="http://www.inkscape.org/namespaces/inkscape"
   inkscape:version="1.0rc1 (09960d6, 2020-04-09)"
   sodipodi:docname="discounts.svg"
   id="svg210"
   version="1.1"
   fill="none"
   viewBox="0 0 36 36"
   height="36"
   width="36">
  <metadata
     id="metadata216">
    <rdf:RDF>
      <cc:Work
         rdf:about="">
        <dc:format>image/svg+xml</dc:format>
        <dc:type
           rdf:resource="http://purl.org/dc/dcmitype/StillImage" />
      </cc:Work>
    </rdf:RDF>
  </metadata>
  <defs
     id="defs214" />
  <sodipodi:namedview
     inkscape:current-layer="svg210"
     inkscape:window-maximized="1"
     inkscape:window-y="23"
     inkscape:window-x="1680"
     inkscape:cy="18"
     inkscape:cx="-7.4779412"
     inkscape:zoom="7.5555556"
     showgrid="false"
     id="namedview212"
     inkscape:window-height="1395"
     inkscape:window-width="2560"
     inkscape:pageshadow="2"
     inkscape:pageopacity="0"
     guidetolerance="10"
     gridtolerance="10"
     objecttolerance="10"
     borderopacity="1"
     bordercolor="#666666"
     pagecolor="#ffffff" />
  <rect
     id="rect206"
     height="36"
     width="36" />
  <path
     style="fill:#056dff;fill-opacity:1"
     id="path208"
     fill="#21125E"
     d="M16.875 36L0 20.1824L20.8125 0H31.6406L36 4.21875V14.8571L16.875 36ZM2.44541 20.1616L3.68047 18.964L17.9973 32.2437L16.7758 33.5941L2.44541 20.1616ZM4.89361 17.7876L19.1294 30.9922L34.3125 14.2071V4.934L30.9578 1.6875H21.4963L4.89361 17.7876ZM30.0938 7.17188C30.0938 8.02619 29.4012 8.71875 28.5469 8.71875C27.6926 8.71875 27 8.02619 27 7.17188C27 6.31756 27.6926 5.625 28.5469 5.625C29.4012 5.625 30.0938 6.31756 30.0938 7.17188ZM31.7812 7.17188C31.7812 8.95817 30.3332 10.4062 28.5469 10.4062C26.7606 10.4062 25.3125 8.95817 25.3125 7.17188C25.3125 5.38558 26.7606 3.9375 28.5469 3.9375C30.3332 3.9375 31.7812 5.38558 31.7812 7.17188Z"
     clip-rule="evenodd"
     fill-rule="evenodd" />
</svg>
