<?xml version="1.0" encoding="UTF-8" standalone="no"?>
<svg
   xmlns:dc="http://purl.org/dc/elements/1.1/"
   xmlns:cc="http://creativecommons.org/ns#"
   xmlns:rdf="http://www.w3.org/1999/02/22-rdf-syntax-ns#"
   xmlns:svg="http://www.w3.org/2000/svg"
   xmlns="http://www.w3.org/2000/svg"
   xmlns:sodipodi="http://sodipodi.sourceforge.net/DTD/sodipodi-0.dtd"
   xmlns:inkscape="http://www.inkscape.org/namespaces/inkscape"
   inkscape:version="1.0rc1 (09960d6, 2020-04-09)"
   sodipodi:docname="orders.svg"
   id="svg252"
   version="1.1"
   fill="none"
   viewBox="0 0 36 36"
   height="36"
   width="36">
  <metadata
     id="metadata258">
    <rdf:RDF>
      <cc:Work
         rdf:about="">
        <dc:format>image/svg+xml</dc:format>
        <dc:type
           rdf:resource="http://purl.org/dc/dcmitype/StillImage" />
      </cc:Work>
    </rdf:RDF>
  </metadata>
  <defs
     id="defs256" />
  <sodipodi:namedview
     inkscape:current-layer="svg252"
     inkscape:window-maximized="1"
     inkscape:window-y="23"
     inkscape:window-x="1680"
     inkscape:cy="18"
     inkscape:cx="-7.4779412"
     inkscape:zoom="7.5555556"
     showgrid="false"
     id="namedview254"
     inkscape:window-height="1395"
     inkscape:window-width="2560"
     inkscape:pageshadow="2"
     inkscape:pageopacity="0"
     guidetolerance="10"
     gridtolerance="10"
     objecttolerance="10"
     borderopacity="1"
     bordercolor="#666666"
     pagecolor="#ffffff" />
  <path
     style="fill:#056dff;fill-opacity:1"
     id="path250"
     fill="#21125E"
     d="M6.42599 3.9375H0V2.25H7.77713L8.75423 6.60938H36L31.5703 24.0469H11.6504H10.7578H10.3941L9.50494 25.875H31.5001V27.5625H6.80768L9.33832 22.3594H10.3972L7.16214 7.22182L6.42599 3.9375ZM11.6016 32.3438C12.3394 32.3438 12.9375 31.7456 12.9375 31.0078C12.9375 30.27 12.3394 29.6719 11.6016 29.6719C10.8637 29.6719 10.2656 30.27 10.2656 31.0078C10.2656 31.7456 10.8637 32.3438 11.6016 32.3438ZM11.6016 34.0312C13.2714 34.0312 14.625 32.6776 14.625 31.0078C14.625 29.338 13.2714 27.9844 11.6016 27.9844C9.93176 27.9844 8.57812 29.338 8.57812 31.0078C8.57812 32.6776 9.93176 34.0312 11.6016 34.0312ZM29.25 31.0078C29.25 31.7456 28.6519 32.3438 27.9141 32.3438C27.1762 32.3438 26.5781 31.7456 26.5781 31.0078C26.5781 30.27 27.1762 29.6719 27.9141 29.6719C28.6519 29.6719 29.25 30.27 29.25 31.0078ZM30.9375 31.0078C30.9375 32.6776 29.5839 34.0312 27.9141 34.0312C26.2443 34.0312 24.8906 32.6776 24.8906 31.0078C24.8906 29.338 26.2443 27.9844 27.9141 27.9844C29.5839 27.9844 30.9375 29.338 30.9375 31.0078ZM33.8302 8.29688L30.2579 22.3594H12.1228L9.11749 8.29688H33.8302Z"
     clip-rule="evenodd"
     fill-rule="evenodd" />
</svg>
