<svg width="256" height="256" viewBox="0 0 256 256" fill="none" xmlns="http://www.w3.org/2000/svg">
<path fill-rule="evenodd" clip-rule="evenodd" d="M4.22265e-06 123L5.9711e-05 3.52954e-06L132.814 0L256 5.36037e-05L256 132.814L255.814 132.813L255.814 256H123L123.002 255.814L0 255.814L4.22265e-06 123ZM223.095 149.84C223.136 144.705 221.911 139.052 219.266 132.961H245.892L245.892 246.078H133L133.34 202.037L132.961 202.265V202.078L125.442 206.602C117.563 211.342 111.205 213.13 106.165 213.166C102.205 213.138 99.0733 212.021 96.6688 210.416C90.8051 206.503 87.3456 198.49 87.318 189.752C87.2903 180.998 90.7021 173.2 96.4387 169.55C98.6584 168.138 101.544 167.157 105.185 167.13C110.342 167.167 116.985 169.103 125.358 174.37L132.961 179.152V178.957L133.338 179.194L132.998 132.961L161.54 132.961C158.546 139.437 157.152 145.421 157.196 150.82C157.153 156.217 158.533 161.04 161.179 165.198C167.265 174.764 178.94 178.949 189.783 178.915C200.642 178.88 212.35 174.619 218.669 165.149C221.594 160.766 223.141 155.626 223.095 149.84ZM156.876 87.7206C151.264 89.7131 142.767 89.0713 130.642 81.4441L123.039 76.6617V77.1596L122.476 76.8057L122.816 123.039L94.3742 123.039C100.235 110.47 100.082 99.7466 95.0898 91.5433C94.9428 91.2939 94.7914 91.0467 94.6356 90.8018C88.5492 81.236 76.8738 77.051 66.031 77.0853C55.1721 77.1196 43.4643 81.3811 37.1448 90.8507C31.6206 99.1286 31.0116 110.108 36.766 123.039L9.92251 123.039L9.92254 9.92248L122.815 9.92249L122.474 53.9631L123.039 53.6236V53.7362L130.558 49.2126C133.739 47.2985 136.673 45.8657 139.372 44.8354C148.538 41.4675 154.949 42.7836 159.145 45.5841C165.009 49.4972 168.469 57.5103 168.496 66.2483C168.524 75.0024 165.112 82.7999 159.376 86.4499C158.621 86.9302 157.789 87.3606 156.876 87.7206ZM202.376 123.039L202.037 122.474L246.077 122.815V9.92253L132.961 9.92252L132.961 36.7337C133.935 36.311 134.897 35.9246 135.848 35.5738C147.53 31.1312 157.495 32.0366 165.149 37.1448C174.619 43.4643 178.88 55.1721 178.915 66.031C178.949 76.8738 174.764 88.5492 165.198 94.6356C163.652 95.6197 162.013 96.4286 160.287 97.0543C152.751 99.9688 143.509 99.3362 132.961 94.4604V122.816L179.194 122.476L178.84 123.039H179.152L174.37 130.642C169.135 138.964 167.191 145.577 167.13 150.721C167.173 154.319 168.15 157.174 169.55 159.376C173.2 165.112 180.998 168.524 189.752 168.496C198.49 168.469 206.503 165.009 210.416 159.145C212.008 156.76 213.12 153.658 213.165 149.742C213.107 144.717 211.313 138.388 206.602 130.558L202.078 123.039H202.376ZM81.4441 125.358C90.3091 111.265 89.7374 102.074 86.561 96.6161C86.5243 96.5565 86.4872 96.4974 86.4499 96.4387C82.7999 90.7021 75.0024 87.2903 66.2483 87.318C57.5103 87.3456 49.4972 90.8051 45.5841 96.6688C41.9413 102.128 40.8101 111.333 49.2325 125.475L53.7362 132.961H53.7353L53.963 133.34L9.92248 133L9.92247 245.892L123.039 245.892L123.039 219.185C116.914 221.869 111.23 223.121 106.067 223.096C100.319 223.125 95.2102 221.579 90.8507 218.669C81.3811 212.35 77.1196 200.642 77.0853 189.783C77.051 178.94 81.236 167.265 90.8018 161.179C94.936 158.548 99.7274 157.169 105.087 157.196C110.513 157.168 116.528 158.59 123.039 161.626L123.039 132.998L76.8057 133.338L77.0427 132.961H76.6617L81.4441 125.358Z" fill="#21125E"/>
</svg>
