<svg width="40" height="40" viewBox="0 0 40 40" fill="none" xmlns="http://www.w3.org/2000/svg">
<rect width="40" height="40" rx="8" fill="none"/>
<g clip-path="url(#clip0_34_39)">
<path d="M8.50394 17.2795H4.09449V18.6473H6.99213C7.1811 18.6473 7.30709 18.7993 7.30709 18.9513V21.3525H6.67717C6.48819 21.3525 6.3622 21.2005 6.3622 21.0485V19.316H5.13386C4.50394 19.316 4 19.8023 4 20.4102V21.626C4 22.2339 4.50394 22.7203 5.13386 22.7203H9.63779V18.3738C9.63779 17.7659 9.13386 17.2795 8.50394 17.2795Z" fill="currentColor"/>
<path d="M13.8896 21.3526H13.2597C13.0707 21.3526 12.9447 21.2006 12.9447 21.0486V17.2796H11.7164C11.0865 17.2796 10.5825 17.766 10.5825 18.3739V21.6261C10.5825 22.234 11.0865 22.7204 11.7164 22.7204H16.2203V15H13.8581L13.8896 21.3526Z" fill="currentColor"/>
<path d="M20.4724 21.3525H19.8424C19.6535 21.3525 19.5275 21.2005 19.5275 21.0485V17.2795H17.1653V21.626C17.1653 22.2339 17.6692 22.7203 18.2991 22.7203H20.4724V23.389H17.2598V24.9695H21.7007C22.3306 24.9695 22.8346 24.4832 22.8346 23.8753V17.2795H20.4724V21.3525Z" fill="currentColor"/>
<path d="M28.2835 17.2795H23.748V21.626C23.748 22.2339 24.252 22.7203 24.8819 22.7203H29.3229V21.3525H26.4252C26.2362 21.3525 26.1103 21.2005 26.1103 21.0485V18.6473H26.7402C26.9291 18.6473 27.0551 18.7993 27.0551 18.9513V20.6838H28.2835C28.9134 20.6838 29.4173 20.1975 29.4173 19.5896V18.3738C29.4173 17.7659 28.9134 17.2795 28.2835 17.2795Z" fill="currentColor"/>
<path d="M34.866 17.2795H30.3621V22.7203H32.7243V18.6473H33.3542C33.5432 18.6473 33.6691 18.7993 33.6691 18.9513V22.7203H36.0314V18.3738C35.9999 17.7659 35.4959 17.2795 34.866 17.2795Z" fill="currentColor"/>
</g>
<defs>
<clipPath id="clip0_34_39">
<rect width="32" height="10" fill="currentColor" transform="translate(4 15)"/>
</clipPath>
</defs>
</svg>
