<svg width="25" height="27" viewBox="0 0 25 27" fill="none" xmlns="http://www.w3.org/2000/svg">
<path d="M21.3333 0.5C22.53 0.5 23.5 1.47005 23.5 2.66667V5.33333C23.5 5.79357 23.1269 6.16667 22.6667 6.16667C22.2064 6.16667 21.8333 5.79357 21.8333 5.33333V2.66667C21.8333 2.39052 21.6095 2.16667 21.3333 2.16667H2.66667C2.39053 2.16667 2.16667 2.39052 2.16667 2.66667V17.3333C2.16667 17.6095 2.39053 17.8333 2.66667 17.8333H4.66667C5.1269 17.8333 5.5 18.2064 5.5 18.6667C5.5 19.1269 5.1269 19.5 4.66667 19.5H2.66667C1.47005 19.5 0.5 18.5299 0.5 17.3333V2.66667C0.5 1.47005 1.47005 0.5 2.66667 0.5H21.3333Z" fill="currentColor"/>
<path d="M5.33333 6.66667C6.06971 6.66667 6.66667 6.06971 6.66667 5.33333C6.66667 4.59695 6.06971 4 5.33333 4C4.59695 4 4 4.59695 4 5.33333C4 6.06971 4.59695 6.66667 5.33333 6.66667Z" fill="currentColor"/>
<path d="M10.6667 5.33333C10.6667 6.06971 10.0697 6.66667 9.33333 6.66667C8.59695 6.66667 8 6.06971 8 5.33333C8 4.59695 8.59695 4 9.33333 4C10.0697 4 10.6667 4.59695 10.6667 5.33333Z" fill="currentColor"/>
<path fill-rule="evenodd" clip-rule="evenodd" d="M10.4627 8.5C9.40354 8.5 8.49963 9.26573 8.32551 10.3105L7.84971 13.1653C7.84759 13.1756 7.84565 13.186 7.84391 13.1965L7.3288 16.2868C7.22771 16.8887 7.07916 17.7734 7.40526 18.6075C7.63371 19.1918 8.0149 19.7001 8.5 20.0829V24C8.5 25.1966 9.47005 26.1667 10.6667 26.1667H21.3333C22.53 26.1667 23.5 25.1966 23.5 24V20.0829C23.9851 19.7001 24.3663 19.1918 24.5947 18.6075C24.9208 17.7734 24.7723 16.8887 24.6712 16.2868L24.1561 13.1965C24.1551 13.1902 24.1539 13.184 24.1528 13.1778C24.1515 13.1714 24.1503 13.165 24.1489 13.1586L23.6742 10.3105C23.5001 9.26573 22.5962 8.5 21.537 8.5H10.4627ZM22.9678 18.1667H19.7006C20.004 18.7603 20.6216 19.1668 21.3341 19.1668C22.0455 19.1668 22.6639 18.7614 22.9678 18.1667ZM16 19.1667C15.2876 19.1667 14.67 18.7603 14.3666 18.1667H17.6334C17.33 18.7603 16.7124 19.1667 16 19.1667ZM12.5 10.1667V16.5H8.98358L9.9695 10.5845C10.0097 10.3434 10.2183 10.1667 10.4627 10.1667H12.5ZM17.8333 16.5H14.1667V10.1667H17.8333V16.5ZM16 20.8333C14.9316 20.8333 13.975 20.3546 13.333 19.6C12.691 20.3547 11.7344 20.8335 10.6659 20.8335C10.4964 20.8335 10.3297 20.8214 10.1667 20.7981V24C10.1667 24.2761 10.3905 24.5 10.6667 24.5H21.3333C21.6095 24.5 21.8333 24.2761 21.8333 24V20.7981C21.6703 20.8214 21.5036 20.8335 21.3341 20.8335C20.2656 20.8335 19.309 20.3547 18.667 19.6C18.025 20.3546 17.0684 20.8333 16 20.8333ZM10.6659 19.1668C9.95453 19.1668 9.33614 18.7614 9.03217 18.1667H12.2994C11.996 18.7603 11.3784 19.1668 10.6659 19.1668ZM19.5 16.5V10.1667H21.537C21.7814 10.1667 21.99 10.3434 22.0302 10.5845L23.0161 16.5H19.5Z" fill="currentColor"/>
</svg>
