<svg fill="none" height="24" viewBox="0 0 25 24" width="25" xmlns="http://www.w3.org/2000/svg"><g fill="currentColor"><path d="m21.3333.5c1.1967 0 2.1667.97005 2.1667 2.16667v4c0 .46023-.3731.83333-.8333.83333-.4603 0-.8334-.3731-.8334-.83333v-4c0-.27615-.2238-.5-.5-.5h-18.66663c-.27614 0-.5.22385-.5.5v14.66663c0 .2762.22386.5.5.5h2c.46023 0 .83333.3731.83333.8334 0 .4602-.3731.8333-.83333.8333h-2c-1.19662 0-2.16667-.97-2.16667-2.1667v-14.66663c0-1.19662.97005-2.16667 2.16667-2.16667z"/><path d="m5.33333 6.66667c.73638 0 1.33334-.59696 1.33334-1.33334s-.59696-1.33333-1.33334-1.33333-1.33333.59695-1.33333 1.33333.59695 1.33334 1.33333 1.33334z"/><path d="m10.6667 5.33333c0 .73638-.597 1.33334-1.33337 1.33334-.73638 0-1.33333-.59696-1.33333-1.33334s.59695-1.33333 1.33333-1.33333c.73637 0 1.33337.59695 1.33337 1.33333z"/><path clip-rule="evenodd" d="m9.33333 9.83333c-1.19661 0-2.16666.97007-2.16666 2.16667v9.3333c0 1.1967.97005 2.1667 2.16666 2.1667h13.33337c1.1966 0 2.1666-.97 2.1666-2.1667v-9.3333c0-1.1966-.97-2.16667-2.1666-2.16667zm-.5 11.49997v-5.8333h3.66667v6.3333h-3.16667c-.27614 0-.5-.2238-.5-.5zm0-9.3333v1.8333h3.66667v-2.3333h-3.16667c-.27614 0-.5.2239-.5.5zm13.83337 9.8333h-8.5v-6.3333h9v5.8333c0 .2762-.2239.5-.5.5zm-8.5-8h9v-1.8333c0-.2761-.2239-.5-.5-.5h-8.5z" fill-rule="evenodd"/></g></svg>
