<svg width="27" height="25" viewBox="0 0 27 25" fill="none" xmlns="http://www.w3.org/2000/svg">
<path d="M23.5 2.66667C23.5 1.47005 22.53 0.5 21.3333 0.5H2.66667C1.47005 0.5 0.5 1.47005 0.5 2.66667V17.3333C0.5 18.53 1.47005 19.5 2.66667 19.5H6.66666C7.1269 19.5 7.5 19.1269 7.5 18.6667C7.5 18.2064 7.1269 17.8333 6.66666 17.8333H2.66667C2.39053 17.8333 2.16667 17.6095 2.16667 17.3333V2.66667C2.16667 2.39052 2.39053 2.16667 2.66667 2.16667H21.3333C21.6095 2.16667 21.8333 2.39053 21.8333 2.66667L21.8333 5.1875C21.8333 5.64774 22.2064 6.02083 22.6667 6.02083C23.1269 6.02083 23.5 5.64774 23.5 5.1875L23.5 2.66667Z" fill="currentColor"/>
<path d="M6.66666 5.33333C6.66666 6.06971 6.06971 6.66667 5.33333 6.66667C4.59695 6.66667 4 6.06971 4 5.33333C4 4.59695 4.59695 4 5.33333 4C6.06971 4 6.66666 4.59695 6.66666 5.33333Z" fill="currentColor"/>
<path d="M9.33333 6.66667C10.0697 6.66667 10.6667 6.06971 10.6667 5.33333C10.6667 4.59695 10.0697 4 9.33333 4C8.59695 4 8 4.59695 8 5.33333C8 6.06971 8.59695 6.66667 9.33333 6.66667Z" fill="currentColor"/>
<path d="M15.3333 15.3333C16.0697 15.3333 16.6667 14.7364 16.6667 14C16.6667 13.2636 16.0697 12.6667 15.3333 12.6667C14.597 12.6667 14 13.2636 14 14C14 14.7364 14.597 15.3333 15.3333 15.3333Z" fill="currentColor"/>
<path d="M22 19.3333C22 20.0697 21.403 20.6667 20.6667 20.6667C19.9303 20.6667 19.3333 20.0697 19.3333 19.3333C19.3333 18.597 19.9303 18 20.6667 18C21.403 18 22 18.597 22 19.3333Z" fill="currentColor"/>
<path d="M15.9226 19.9226L21.2559 14.5893C21.5814 14.2638 21.5814 13.7362 21.2559 13.4107C20.9305 13.0853 20.4028 13.0853 20.0774 13.4107L14.7441 18.7441C14.4186 19.0695 14.4186 19.5972 14.7441 19.9226C15.0695 20.248 15.5972 20.248 15.9226 19.9226Z" fill="currentColor"/>
<path fill-rule="evenodd" clip-rule="evenodd" d="M9.83333 16.6667C9.83333 12.1563 13.4897 8.5 18 8.5C22.5103 8.5 26.1667 12.1563 26.1667 16.6667C26.1667 21.177 22.5103 24.8333 18 24.8333C13.4897 24.8333 9.83333 21.177 9.83333 16.6667ZM18 10.1667C14.4101 10.1667 11.5 13.0768 11.5 16.6667C11.5 20.2565 14.4101 23.1667 18 23.1667C21.5898 23.1667 24.5 20.2565 24.5 16.6667C24.5 13.0768 21.5898 10.1667 18 10.1667Z" fill="currentColor"/>
</svg>
