<svg width="24" height="24" viewBox="0 0 24 24" fill="none" xmlns="http://www.w3.org/2000/svg">
<path d="M5.04235 15.1657C5.04235 16.5533 3.90879 17.6869 2.52117 17.6869C1.13355 17.6869 0 16.5533 0 15.1657C0 13.7781 1.13355 12.6445 2.52117 12.6445H5.04235V15.1657Z" fill="#E01E5A"/>
<path d="M6.3125 15.1657C6.3125 13.7781 7.44605 12.6445 8.83367 12.6445C10.2213 12.6445 11.3548 13.7781 11.3548 15.1657V21.4784C11.3548 22.866 10.2213 23.9996 8.83367 23.9996C7.44605 23.9996 6.3125 22.866 6.3125 21.4784V15.1657Z" fill="#E01E5A"/>
<path d="M8.83367 5.04235C7.44605 5.04235 6.3125 3.90879 6.3125 2.52117C6.3125 1.13355 7.44605 0 8.83367 0C10.2213 0 11.3548 1.13355 11.3548 2.52117V5.04235H8.83367Z" fill="#36C5F0"/>
<path d="M8.83388 6.3125C10.2215 6.3125 11.355 7.44605 11.355 8.83367C11.355 10.2213 10.2215 11.3548 8.83388 11.3548H2.52117C1.13355 11.3548 0 10.2213 0 8.83367C0 7.44605 1.13355 6.3125 2.52117 6.3125H8.83388Z" fill="#36C5F0"/>
<path d="M18.957 8.83367C18.957 7.44605 20.0906 6.3125 21.4782 6.3125C22.8658 6.3125 23.9994 7.44605 23.9994 8.83367C23.9994 10.2213 22.8658 11.3548 21.4782 11.3548H18.957V8.83367Z" fill="#2EB67D"/>
<path d="M17.6869 8.83388C17.6869 10.2215 16.5533 11.355 15.1657 11.355C13.7781 11.355 12.6445 10.2215 12.6445 8.83388V2.52117C12.6445 1.13355 13.7781 0 15.1657 0C16.5533 0 17.6869 1.13355 17.6869 2.52117V8.83388Z" fill="#2EB67D"/>
<path d="M15.1657 18.957C16.5533 18.957 17.6869 20.0906 17.6869 21.4782C17.6869 22.8658 16.5533 23.9994 15.1657 23.9994C13.7781 23.9994 12.6445 22.8658 12.6445 21.4782V18.957H15.1657Z" fill="#ECB22E"/>
<path d="M15.1657 17.6869C13.7781 17.6869 12.6445 16.5533 12.6445 15.1657C12.6445 13.7781 13.7781 12.6445 15.1657 12.6445H21.4784C22.866 12.6445 23.9996 13.7781 23.9996 15.1657C23.9996 16.5533 22.866 17.6869 21.4784 17.6869H15.1657Z" fill="#ECB22E"/>
</svg>
