<svg width="27" height="27" viewBox="0 0 27 27" fill="none" xmlns="http://www.w3.org/2000/svg">
<path d="M21.3333 0.5C22.5299 0.5 23.5 1.47005 23.5 2.66667V6C23.5 6.46024 23.1269 6.83333 22.6667 6.83333C22.2064 6.83333 21.8333 6.46024 21.8333 6V2.66667C21.8333 2.39052 21.6095 2.16667 21.3333 2.16667H2.66667C2.39053 2.16667 2.16667 2.39052 2.16667 2.66667V17.3333C2.16667 17.6095 2.39053 17.8333 2.66667 17.8333H7.33333C7.79357 17.8333 8.16667 18.2064 8.16667 18.6667C8.16667 19.1269 7.79357 19.5 7.33333 19.5H2.66667C1.47005 19.5 0.5 18.5299 0.5 17.3333V2.66667C0.5 1.47005 1.47005 0.5 2.66667 0.5H21.3333Z" fill="currentColor"/>
<path d="M5.33333 6.66667C6.06971 6.66667 6.66667 6.06971 6.66667 5.33333C6.66667 4.59695 6.06971 4 5.33333 4C4.59695 4 4 4.59695 4 5.33333C4 6.06971 4.59695 6.66667 5.33333 6.66667Z" fill="currentColor"/>
<path d="M10.6667 5.33333C10.6667 6.06971 10.0697 6.66667 9.33333 6.66667C8.59695 6.66667 8 6.06971 8 5.33333C8 4.59695 8.59695 4 9.33333 4C10.0697 4 10.6667 4.59695 10.6667 5.33333Z" fill="currentColor"/>
<path fill-rule="evenodd" clip-rule="evenodd" d="M14.1667 20.7335C15.6973 20.3597 16.8333 18.9792 16.8333 17.3333C16.8333 15.6875 15.6973 14.307 14.1667 13.9331V13.3333C14.1667 13.0572 14.3905 12.8333 14.6667 12.8333H19.2665C19.6403 14.364 21.0208 15.5 22.6667 15.5C24.5997 15.5 26.1667 13.933 26.1667 12C26.1667 10.067 24.5997 8.5 22.6667 8.5C21.0208 8.5 19.6403 9.636 19.2665 11.1667H14.6667C13.47 11.1667 12.5 12.1367 12.5 13.3333V13.9331C10.9693 14.307 9.83333 15.6875 9.83333 17.3333C9.83333 18.9792 10.9693 20.3597 12.5 20.7335V21.3333C12.5 22.5299 13.47 23.5 14.6667 23.5H19.2665C19.6403 25.0307 21.0208 26.1667 22.6667 26.1667C24.5997 26.1667 26.1667 24.5997 26.1667 22.6667C26.1667 20.7337 24.5997 19.1667 22.6667 19.1667C21.0208 19.1667 19.6403 20.3027 19.2665 21.8333H14.6667C14.3905 21.8333 14.1667 21.6095 14.1667 21.3333V20.7335ZM11.5 17.3333C11.5 16.3208 12.3208 15.5 13.3333 15.5C14.3459 15.5 15.1667 16.3208 15.1667 17.3333C15.1667 18.3459 14.3459 19.1667 13.3333 19.1667C12.3208 19.1667 11.5 18.3459 11.5 17.3333ZM20.8333 22.6667C20.8333 23.6792 21.6541 24.5 22.6667 24.5C23.6792 24.5 24.5 23.6792 24.5 22.6667C24.5 21.6541 23.6792 20.8333 22.6667 20.8333C21.6541 20.8333 20.8333 21.6541 20.8333 22.6667ZM22.6667 13.8333C21.6541 13.8333 20.8333 13.0125 20.8333 12C20.8333 10.9875 21.6541 10.1667 22.6667 10.1667C23.6792 10.1667 24.5 10.9875 24.5 12C24.5 13.0125 23.6792 13.8333 22.6667 13.8333Z" fill="currentColor"/>
</svg>
