<svg width="35" height="40" viewBox="0 0 288 288" fill="none" xmlns="http://www.w3.org/2000/svg">
<path d="M143.5 191.85C158.5 172.7 181.15 147.6 207.75 127.95L212.25 138.6C171.3 176.7 151.55 217.45 143.45 231.15C139.3 224.15 131.75 209.5 120.35 192.5L128.3 173.75C133.9 180.1 143.5 191.85 143.5 191.85ZM203.1 236.7H235.5L206.9 168.25C198.55 177.1 191.35 185.9 185.05 194.25L203.1 236.7ZM157.75 50.65H157.55H129.3H129.1L51.35 236.7H83.75L140 104.1L142.65 96.9H144.15L146.8 104.1L163.45 143.4C170.85 136 178.95 128.7 187.45 121.85L157.75 50.65Z" fill="currentColor"/>
</svg>
