<svg version="1.1" id="Layer_1" xmlns="http://www.w3.org/2000/svg" xmlns:xlink="http://www.w3.org/1999/xlink" x="0px" y="0px" viewBox="0 0 576 576" style="enable-background:new 0 0 576 576;" xml:space="preserve">
<path class="st0" d="M287,383.7c30-38.3,75.3-88.5,128.5-127.8l9,21.3c-81.9,76.2-121.4,157.7-137.6,185.1
	c-8.3-14-23.4-43.3-46.2-77.3l15.9-37.5C267.8,360.2,287,383.7,287,383.7 M406.2,473.4H471l-57.2-136.9
	c-16.7,17.7-31.1,35.3-43.7,52L406.2,473.4z M315.5,101.3h-0.4h-56.5h-0.4L102.7,473.4h64.8L280,208.2l5.3-14.4h3l5.3,14.4
	l33.3,78.6c14.8-14.8,31-29.4,48-43.1L315.5,101.3z"
    fill="currentColor"
    />
</svg>
