<svg width="24" height="24" viewBox="0 0 512 512" fill="none" xmlns="http://www.w3.org/2000/svg">
<g clip-path="url(#clip0_2272_1104)">
<rect width="512" height="512" rx="118" fill="#3AD579"/>
<path d="M243.125 296.625H269.875C276.97 296.625 283.774 293.807 288.79 288.79C293.807 283.774 296.625 276.97 296.625 269.875C296.625 262.78 293.807 255.977 288.79 250.96C283.774 245.943 276.97 243.125 269.875 243.125H229.75C221.725 243.125 215.038 245.8 211.025 251.15L136.125 323.375" stroke="white" stroke-width="18" stroke-linecap="round" stroke-linejoin="round"/>
<path d="M189.625 376.875L211.025 358.15C215.038 352.8 221.725 350.125 229.75 350.125H283.25C297.963 350.125 311.337 344.775 320.7 334.075L382.225 275.225C387.386 270.348 390.399 263.619 390.599 256.521C390.8 249.423 388.173 242.535 383.295 237.374C378.418 232.212 371.689 229.2 364.591 229C357.492 228.799 350.605 231.426 345.444 236.304L289.269 288.466" stroke="white" stroke-width="18" stroke-linecap="round" stroke-linejoin="round"/>
<path d="M122.75 310L203 390.25" stroke="white" stroke-width="18" stroke-linecap="round" stroke-linejoin="round"/>
<path d="M310 255.162C331.422 255.162 348.787 237.797 348.787 216.375C348.787 194.953 331.422 177.588 310 177.588C288.578 177.588 271.213 194.953 271.213 216.375C271.213 237.797 288.578 255.162 310 255.162Z" stroke="white" stroke-width="18" stroke-linecap="round" stroke-linejoin="round"/>
<path d="M176.25 203C198.41 203 216.375 185.035 216.375 162.875C216.375 140.715 198.41 122.75 176.25 122.75C154.09 122.75 136.125 140.715 136.125 162.875C136.125 185.035 154.09 203 176.25 203Z" stroke="white" stroke-width="18" stroke-linecap="round" stroke-linejoin="round"/>
</g>
<defs>
<clipPath id="clip0_2272_1104">
<rect width="512" height="512" fill="white"/>
</clipPath>
</defs>
</svg>
