<svg width="27" height="23" viewBox="0 0 27 23" fill="none" xmlns="http://www.w3.org/2000/svg">
<path fill-rule="evenodd" clip-rule="evenodd" d="M23.5 2.66667C23.5 1.47005 22.5299 0.5 21.3333 0.5H2.66667C1.47005 0.5 0.5 1.47005 0.5 2.66667V17.3333C0.5 18.53 1.47005 19.5 2.66667 19.5H14C14.4602 19.5 14.8333 19.1269 14.8333 18.6667C14.8333 18.2064 14.4602 17.8333 14 17.8333H2.66667C2.39052 17.8333 2.16667 17.6095 2.16667 17.3333V2.66667C2.16667 2.39052 2.39052 2.16667 2.66667 2.16667H21.3333C21.6095 2.16667 21.8333 2.39052 21.8333 2.66667L21.8333 9.1875C21.8333 9.64774 22.2064 10.0208 22.6667 10.0208C23.1269 10.0208 23.5 9.64774 23.5 9.1875L23.5 2.66667ZM4.5 5.33333C4.5 4.8731 4.87309 4.5 5.33333 4.5H18.6667C19.1269 4.5 19.5 4.8731 19.5 5.33333C19.5 5.79357 19.1269 6.16667 18.6667 6.16667H5.33333C4.87309 6.16667 4.5 5.79357 4.5 5.33333ZM4.5 8.66667C4.5 8.20643 4.87309 7.83333 5.33333 7.83333H18.6667C19.1269 7.83333 19.5 8.20643 19.5 8.66667C19.5 9.1269 19.1269 9.5 18.6667 9.5H5.33333C4.87309 9.5 4.5 9.1269 4.5 8.66667ZM4.5 12C4.5 11.5398 4.87309 11.1667 5.33333 11.1667H14.6667C15.1269 11.1667 15.5 11.5398 15.5 12C15.5 12.4602 15.1269 12.8333 14.6667 12.8333H5.33333C4.87309 12.8333 4.5 12.4602 4.5 12ZM26.6667 18C26.6667 20.5773 24.5773 22.6667 22 22.6667C19.4227 22.6667 17.3333 20.5773 17.3333 18C17.3333 15.4227 19.4227 13.3333 22 13.3333C24.5773 13.3333 26.6667 15.4227 26.6667 18ZM22 15.1667C21.5398 15.1667 21.1667 15.5398 21.1667 16V17.1667H20C19.5398 17.1667 19.1667 17.5398 19.1667 18C19.1667 18.4602 19.5398 18.8333 20 18.8333H22C22.4602 18.8333 22.8333 18.4602 22.8333 18V16C22.8333 15.5398 22.4602 15.1667 22 15.1667Z" fill="currentColor"/>
</svg>
