<svg width="24" height="24" viewBox="0 0 24 24" fill="none" xmlns="http://www.w3.org/2000/svg">
    <path d="M19 3.375C19.8975 3.375 20.625 4.10254 20.625 5V9C20.625 9.34518 20.3452 9.625 20 9.625C19.6548 9.625 19.375 9.34518 19.375 9V5C19.375 4.79289 19.2071 4.625 19 4.625H5C4.79289 4.625 4.625 4.79289 4.625 5V16C4.625 16.2071 4.79289 16.375 5 16.375H7.5C7.84518 16.375 8.125 16.6548 8.125 17C8.125 17.3452 7.84518 17.625 7.5 17.625H5C4.10254 17.625 3.375 16.8975 3.375 16V5C3.375 4.10254 4.10254 3.375 5 3.375H19Z"
          fill="currentColor"/>
    <path d="M7 8C7.55228 8 8 7.55228 8 7C8 6.44772 7.55228 6 7 6C6.44772 6 6 6.44772 6 7C6 7.55228 6.44772 8 7 8Z"
          fill="currentColor"/>
    <path d="M11 7C11 7.55228 10.5523 8 10 8C9.44772 8 9 7.55228 9 7C9 6.44772 9.44772 6 10 6C10.5523 6 11 6.44772 11 7Z"
          fill="currentColor"/>
    <path fill-rule="evenodd" clip-rule="evenodd"
          d="M16.312 9.74701C15.8092 9.45673 15.1897 9.45673 14.687 9.74701L10.9238 11.9197C10.4211 12.2099 10.1113 12.7464 10.1113 13.3269V17.6722C10.1113 18.2528 10.4211 18.7893 10.9238 19.0795L14.687 21.2522C15.1897 21.5425 15.8092 21.5425 16.312 21.2522L20.0751 19.0795C20.5779 18.7893 20.8876 18.2528 20.8876 17.6722V13.3269C20.8876 12.7464 20.5779 12.2099 20.0751 11.9197L16.312 9.74701ZM15.312 10.8295C15.428 10.7626 15.5709 10.7626 15.687 10.8295L19.1063 12.8037L15.6874 14.7776C15.5714 14.8446 15.4284 14.8446 15.3124 14.7776L11.8931 12.8034L15.312 10.8295ZM11.3613 13.9398V17.6722C11.3613 17.8062 11.4328 17.93 11.5488 17.997L14.875 19.9174V15.9529C14.811 15.9262 14.7483 15.8953 14.6874 15.8601L11.3613 13.9398ZM19.4501 17.997L16.125 19.9168V15.9528C16.1889 15.9262 16.2515 15.8953 16.3124 15.8601L19.6376 13.9403V17.6722C19.6376 17.8062 19.5661 17.93 19.4501 17.997Z"
          fill="currentColor"/>
</svg>
