<svg width="18" height="19" viewBox="0 0 18 19" fill="none" xmlns="http://www.w3.org/2000/svg">
<path d="M16.8422 7.92817H7.898C7.55454 7.92817 7.26832 7.64196 7.26832 7.2985V6.22519C7.26832 5.88173 7.55454 5.59551 7.898 5.59551H16.8995C17.2429 5.59551 17.5292 5.88173 17.5292 6.22519V7.2985C17.4576 7.64196 17.1857 7.92817 16.8422 7.92817ZM10.0446 12.4504C10.3881 12.4504 10.6743 12.1642 10.7172 11.878V10.8046C10.7172 10.4612 10.431 10.175 10.0875 10.175H1.10038C0.756919 10.175 0.470703 10.4612 0.470703 10.7474V11.8207C0.470703 12.1642 0.756919 12.4504 1.10038 12.4504H10.0446ZM3.87667 14.1534C3.24699 14.1534 2.74612 14.6542 2.74612 15.2839C2.74612 15.9136 3.24699 16.4145 3.87667 16.4145C4.50634 16.4145 5.00722 15.9136 5.00722 15.2839C5.00722 14.6542 4.49203 14.1534 3.87667 14.1534ZM14.0659 1.68867C13.4363 1.68867 12.9354 2.18955 12.9354 2.81922C12.9354 3.4489 13.4363 3.94977 14.0659 3.94977C14.6956 3.94977 15.1965 3.4489 15.1965 2.81922C15.1965 2.20386 14.6956 1.68867 14.0659 1.68867ZM8.97131 15.8563C8.34163 15.8563 7.72627 15.7419 7.15384 15.5701C6.86762 15.5129 6.58141 15.6274 6.48123 15.9136L6.08053 16.9869C5.96604 17.2731 6.13777 17.6166 6.48123 17.7167C7.26832 18.003 8.12697 18.1175 8.97131 18.1175C12.6492 18.1175 15.8262 15.9136 17.2429 12.7366C17.3574 12.4504 17.2429 12.064 16.8995 11.9495L15.8262 11.5488C15.54 11.4343 15.2537 11.5488 15.1536 11.835C14.0659 14.2106 11.7476 15.8563 8.97131 15.8563ZM8.97131 2.2611C9.60098 2.2611 10.2163 2.37559 10.7888 2.54732C11.075 2.60456 11.3612 2.49008 11.4614 2.20386L11.8621 1.13055C11.9766 0.844338 11.8048 0.500878 11.4614 0.400702C10.6743 0.114487 9.81564 0 8.97131 0C5.29344 0 2.11644 2.20386 0.699675 5.38085C0.585189 5.66707 0.699676 6.05346 1.04313 6.16795L2.11644 6.56865C2.40266 6.68314 2.68887 6.56865 2.78905 6.28243C3.87667 3.90685 6.19502 2.2611 8.97131 2.2611Z" fill="currentColor"/>
</svg>
