<svg width="36" height="36" viewBox="0 0 36 36" fill="none" xmlns="http://www.w3.org/2000/svg">
<path fill-rule="evenodd" clip-rule="evenodd" d="M25.3125 1.6875H10.6875V5.0625H25.3125V1.6875ZM9 0V6.75H17.2969V13.2188H12.9375V10.6875H0V17.4375H12.9375V14.9062H17.2969V22.4297H12.9375V19.9688H0V26.7188H12.9375V24.1172H17.2969V31.9219H12.9375V29.25H0V36H12.9375V33.6094H17.2969H18.9844H23.0625V36H36V29.25H23.0625V31.9219H18.9844V24.1172H23.0625V26.7188H36V19.9688H23.0625V22.4297H18.9844V14.9062H23.0625V17.4375H36V10.6875H23.0625V13.2188H18.9844V6.75H27V0H9ZM11.25 12.375H1.6875V15.75H11.25V12.375ZM1.6875 21.6562H11.25V25.0312H1.6875V21.6562ZM11.25 30.9375H1.6875V34.3125H11.25V30.9375ZM24.75 12.375H34.3125V15.75H24.75V12.375ZM34.3125 21.6562H24.75V25.0312H34.3125V21.6562ZM24.75 30.9375H34.3125V34.3125H24.75V30.9375Z" fill="#21125E"/>
</svg>
