<svg width="36" height="36" viewBox="0 0 36 36" fill="none" xmlns="http://www.w3.org/2000/svg">
<rect width="36" height="36" />
<path fill-rule="evenodd" clip-rule="evenodd" d="M17.7552 0.146625L17.4396 0L17.1314 0.161644C12.1689 2.76427 8.5856 8.08782 7.04366 14.4821C6.51349 16.6806 6.22223 19.0135 6.19929 21.4188L0 26.0419V33.042H8.1889C8.49534 33.8938 8.8389 34.7428 9.22077 35.5862L9.40812 36H25.5019L25.6921 35.5953C26.0866 34.7559 26.4407 33.9036 26.7557 33.042H34.9328V26.0419L28.7336 21.4189C28.7105 19.0674 28.4389 16.7669 27.941 14.59C26.4486 8.06443 22.8902 2.53204 17.7552 0.146625ZM28.7054 23.155C28.5864 25.9748 28.1083 28.8415 27.2335 31.6334H33.5242V26.7486L28.7054 23.155ZM7.71651 31.6334C6.83242 28.7934 6.35124 25.936 6.22917 23.1537L1.40859 26.7486V31.6334H7.71651ZM8.41299 14.8123C9.85366 8.838 13.1209 4.00117 17.4769 1.57598C21.9202 3.79656 25.1665 8.77635 26.5679 14.9041C27.9688 21.0297 27.4943 28.1907 24.6038 34.5914H10.32C7.3787 27.8514 6.97068 20.7934 8.41299 14.8123ZM17.4663 25.8582C19.0221 25.8582 20.2834 24.5969 20.2834 23.041C20.2834 21.4852 19.0221 20.2239 17.4663 20.2239C15.9104 20.2239 14.6491 21.4852 14.6491 23.041C14.6491 24.5969 15.9104 25.8582 17.4663 25.8582ZM17.4663 27.2668C19.8001 27.2668 21.692 25.3749 21.692 23.041C21.692 20.7072 19.8001 18.8153 17.4663 18.8153C15.1324 18.8153 13.2405 20.7072 13.2405 23.041C13.2405 25.3749 15.1324 27.2668 17.4663 27.2668Z" fill="#21125E"/>
</svg>
