<svg width="36" height="36" viewBox="0 0 36 36" fill="none" xmlns="http://www.w3.org/2000/svg">
<path fill-rule="evenodd" clip-rule="evenodd" d="M13.3854 1.74393L15.0148 4.64335L15.9525 4.52593C16.5089 4.45625 17.0764 4.42028 17.653 4.42028C18.2112 4.42028 18.761 4.454 19.3005 4.5194L20.2347 4.63264L21.858 1.74393L26.309 3.43143L25.2038 6.67608L25.9902 7.29159C26.844 7.95992 27.6159 8.72857 28.2879 9.57973L28.848 10.289L32.2858 9.44795L34.055 13.7387L31.0049 15.494L31.1104 16.4123C31.1694 16.9262 31.1998 17.4493 31.1998 17.9801C31.1998 18.5311 31.167 19.0738 31.1035 19.6066L30.9927 20.5353L34.1916 22.3486L32.2304 26.7047L28.7755 25.7769L28.2006 26.4898C27.5649 27.2782 26.8428 27.9939 26.0488 28.6224L25.2817 29.2296L26.2755 32.2848L21.6007 33.9361L20.083 31.3537L19.1764 31.4552C18.6768 31.5111 18.1685 31.5398 17.653 31.5398C17.083 31.5398 16.5218 31.5047 15.9715 31.4365L15.035 31.3206L13.3854 34.2561L8.93438 32.5686L10.0624 29.257L9.28075 28.641C8.45599 27.9911 7.70835 27.2473 7.05405 26.4258L6.47811 25.7027L3.26037 26.5756L1.68728 22.3314L4.29851 20.4149L4.20173 19.6005C4.13865 19.0697 4.10613 18.529 4.10613 17.9801C4.10613 17.4537 4.13603 16.9349 4.1941 16.4252L4.29855 15.5083L1.84288 14.0932L3.97984 9.74659L6.41198 10.3551L6.97473 9.63482C7.64517 8.77666 8.41661 8.00129 9.27104 7.32673L10.0514 6.71067L8.93438 3.43143L13.3854 1.74393ZM28.0784 2.59831L21.2249 0L19.4697 3.12337C18.8742 3.05118 18.2679 3.01403 17.653 3.01403C17.0179 3.01403 16.392 3.05365 15.7777 3.13058L14.0185 0L7.16501 2.59831L8.39965 6.22299C7.45707 6.96715 6.60614 7.82243 5.86657 8.76908L3.21909 8.10663L2.13665e-05 14.6543L2.79689 16.266C2.73281 16.8285 2.69988 17.4004 2.69988 17.9801C2.69988 18.5846 2.73569 19.1807 2.8053 19.7665L0 21.8255L2.38836 28.2692L5.95407 27.302C6.67584 28.2081 7.5005 29.0286 8.41037 29.7456L7.16501 33.4017L14.0185 36L15.7987 32.8321C16.4062 32.9074 17.0251 32.9461 17.653 32.9461C18.2209 32.9461 18.7814 32.9144 19.3328 32.8527L20.9759 35.6483L28.037 33.154L26.9216 29.725C27.7975 29.0316 28.594 28.2422 29.2953 27.3726L33.0214 28.3731L36 21.7573L32.4998 19.7731C32.57 19.1852 32.6061 18.5869 32.6061 17.9801C32.6061 17.3955 32.5726 16.8189 32.5074 16.2518L35.8251 14.3425L33.1253 7.79484L29.3916 8.7083C28.6503 7.76938 27.7989 6.92152 26.857 6.18423L28.0784 2.59831ZM23.2031 18C23.2031 20.8736 20.8736 23.2031 18 23.2031C15.1264 23.2031 12.7969 20.8736 12.7969 18C12.7969 15.1264 15.1264 12.7969 18 12.7969C20.8736 12.7969 23.2031 15.1264 23.2031 18ZM18 24.6094C21.6503 24.6094 24.6094 21.6503 24.6094 18C24.6094 14.3497 21.6503 11.3906 18 11.3906C14.3497 11.3906 11.3906 14.3497 11.3906 18C11.3906 21.6503 14.3497 24.6094 18 24.6094Z" fill="#21125E"/>
</svg>
