<svg width="36" height="36" viewBox="0 0 36 36" fill="none" xmlns="http://www.w3.org/2000/svg">
<path fill-rule="evenodd" clip-rule="evenodd" d="M23.625 7.03125C23.625 10.1379 21.1066 12.6562 18 12.6562C14.8934 12.6562 12.375 10.1379 12.375 7.03125C12.375 3.92465 14.8934 1.40625 18 1.40625C21.1066 1.40625 23.625 3.92465 23.625 7.03125ZM25.0312 7.03125C25.0312 10.9145 21.8833 14.0625 18 14.0625C14.1167 14.0625 10.9688 10.9145 10.9688 7.03125C10.9688 3.148 14.1167 0 18 0C21.8833 0 25.0312 3.148 25.0312 7.03125ZM15.3281 19.4062H20.5312C24.4145 19.4062 27.5625 22.5542 27.5625 26.4375V34.5938H8.29688V26.4375C8.29688 22.5542 11.4449 19.4062 15.3281 19.4062ZM6.89062 26.4375C6.89062 25.5741 7.0203 24.741 7.26124 23.9567C7.02528 23.9234 6.78418 23.9062 6.53906 23.9062C3.70429 23.9062 1.40625 26.2043 1.40625 29.0391V31.725H6.89062V26.4375ZM6.53906 22.5C6.97068 22.5 7.39252 22.5418 7.80077 22.6216C9.1938 19.8791 12.0415 18 15.3281 18H20.5312C23.8283 18 26.6837 19.8911 28.0719 22.6479C28.5196 22.551 28.9843 22.5 29.461 22.5C33.0724 22.5 36.0001 25.4276 36.0001 29.0391V33.1312H28.9688V31.725H34.5938V29.0391C34.5938 26.2043 32.2958 23.9062 29.461 23.9062C29.1692 23.9062 28.883 23.9306 28.6045 23.9774C28.8413 24.7557 28.9688 25.5817 28.9688 26.4375V36H6.89062V33.1312H0V29.0391C0 25.4276 2.92764 22.5 6.53906 22.5ZM6.4969 18.5625C8.0502 18.5625 9.3094 17.3033 9.3094 15.75C9.3094 14.1967 8.0502 12.9375 6.4969 12.9375C4.9436 12.9375 3.6844 14.1967 3.6844 15.75C3.6844 17.3033 4.9436 18.5625 6.4969 18.5625ZM6.4969 19.9688C8.82685 19.9688 10.7157 18.08 10.7157 15.75C10.7157 13.42 8.82685 11.5312 6.4969 11.5312C4.16695 11.5312 2.27815 13.42 2.27815 15.75C2.27815 18.08 4.16695 19.9688 6.4969 19.9688ZM32.2313 15.75C32.2313 17.3033 30.9721 18.5625 29.4188 18.5625C27.8655 18.5625 26.6063 17.3033 26.6063 15.75C26.6063 14.1967 27.8655 12.9375 29.4188 12.9375C30.9721 12.9375 32.2313 14.1967 32.2313 15.75ZM33.6375 15.75C33.6375 18.08 31.7487 19.9688 29.4188 19.9688C27.0888 19.9688 25.2 18.08 25.2 15.75C25.2 13.42 27.0888 11.5312 29.4188 11.5312C31.7487 11.5312 33.6375 13.42 33.6375 15.75Z" fill="#21125E"/>
</svg>
