<svg width="36" height="36" viewBox="0 0 36 36" fill="none" xmlns="http://www.w3.org/2000/svg">
<path fill-rule="evenodd" clip-rule="evenodd" d="M22.6406 8.71429C24.2715 8.71429 25.5937 7.37114 25.5937 5.71429C25.5937 4.05743 24.2715 2.71429 22.6406 2.71429C21.0096 2.71429 19.6874 4.05743 19.6874 5.71429C19.6874 7.37114 21.0096 8.71429 22.6406 8.71429ZM22.6406 10.4286C25.2035 10.4286 27.2812 8.31791 27.2812 5.71429C27.2812 3.11066 25.2035 1 22.6406 1C21.135 1 19.7969 1.72836 18.949 2.85714H0V8.57143H18.949C19.7969 9.70021 21.135 10.4286 22.6406 10.4286ZM18.1372 4.57143H1.6875V6.85714H18.1372C18.0475 6.49123 17.9999 6.1084 17.9999 5.71429C17.9999 5.32017 18.0475 4.93735 18.1372 4.57143ZM13.9219 18C13.9219 19.6569 12.5997 21 10.9688 21C9.33778 21 8.01562 19.6569 8.01562 18C8.01562 16.3431 9.33778 15 10.9688 15C12.5997 15 13.9219 16.3431 13.9219 18ZM14.6603 20.8571C13.8125 21.9859 12.4743 22.7143 10.9688 22.7143C9.46291 22.7143 8.12459 21.9857 7.27676 20.8566L7.2772 20.8571H0V15.1429H7.27721C8.12506 14.0141 9.46317 13.2857 10.9688 13.2857C12.4743 13.2857 13.8124 14.0141 14.6603 15.1429H36V20.8571H14.6603L14.6603 20.8571ZM15.4721 19.1429H34.3125V16.8571H15.4721C15.5618 17.2231 15.6094 17.6059 15.6094 18C15.6094 18.3941 15.5618 18.7769 15.4721 19.1429ZM6.46543 16.8571H1.6875V19.1429H6.46542L6.46543 19.1429C6.37573 18.777 6.32812 18.3941 6.32812 18C6.32812 17.6059 6.37573 17.2231 6.46543 16.8571ZM29.8125 30.2857C29.8125 31.9426 28.4903 33.2857 26.8594 33.2857C25.2284 33.2857 23.9062 31.9426 23.9062 30.2857C23.9062 28.6289 25.2284 27.2857 26.8594 27.2857C28.4903 27.2857 29.8125 28.6289 29.8125 30.2857ZM30.5509 33.1429C29.7031 34.2716 28.365 35 26.8594 35C25.3538 35 24.0157 34.2716 23.1678 33.1429H0V27.4286H23.1678C24.0157 26.2998 25.3538 25.5714 26.8594 25.5714C28.3651 25.5714 29.7033 26.2999 30.5511 27.4288L30.5509 27.4286H36V33.1429H30.5509ZM31.3627 31.4286H34.3125V29.1429H31.3627C31.4524 29.5088 31.5 29.8916 31.5 30.2857C31.5 30.6798 31.4524 31.0627 31.3627 31.4286ZM22.356 29.1429H1.6875V31.4286H22.356C22.2664 31.0627 22.2188 30.6798 22.2188 30.2857C22.2188 29.8916 22.2664 29.5088 22.356 29.1429ZM34.3125 4.57143H27.144C26.9892 3.94006 26.7091 3.35902 26.3322 2.85714H36V8.57143H26.3322C26.7091 8.06955 26.9892 7.48851 27.1439 6.85714H34.3125V4.57143Z" fill="#21125E"/>
</svg>
