<svg width="36" height="36" viewBox="0 0 36 36" fill="none" xmlns="http://www.w3.org/2000/svg">
<path fill-rule="evenodd" clip-rule="evenodd" d="M29.7257 5.73354H0.999023L6.67334 0H35.3999L29.7257 5.73354ZM29.1409 4.33202H4.3579L7.25814 1.40151H32.0411L29.1409 4.33202ZM18.0624 24.3768L18.1818 24.3971L18.1921 24.3988C20.0168 24.6953 21.7379 25.0369 23.0076 25.7801C23.6149 26.1356 24.0759 26.5608 24.3909 27.084C24.703 27.6027 24.9206 28.2983 24.9206 29.2746C24.9206 31.025 24.5219 32.2356 23.614 33.0542C22.6657 33.9091 20.8775 34.5985 17.4891 34.5985C14.4956 34.5985 12.6883 34.179 11.5917 33.4682C10.8758 33.0042 10.3624 32.3477 10.0457 31.34L12.8958 30.9219C13.1386 31.5511 13.5196 32.12 14.1483 32.537C15.0909 33.1621 16.3255 33.2419 17.5698 33.2419C18.7561 33.2419 19.8622 33.116 20.6935 32.6099C21.1491 32.3326 21.5116 31.9484 21.7447 31.4595C21.9687 30.9896 22.0368 30.5 22.0368 30.052C22.0368 29.543 21.9633 29.0158 21.7316 28.5172C21.491 27.9996 21.1235 27.6066 20.6825 27.312C19.8967 26.7872 18.8118 26.5474 17.7053 26.3414L17.6929 26.3391L17.6804 26.337C17.4999 26.3068 17.3198 26.2771 17.1404 26.2475L17.1398 26.2474C15.3727 25.9559 13.6773 25.6763 12.3451 24.9945C11.649 24.6383 11.1248 24.2032 10.7697 23.6553C10.4196 23.1149 10.1706 22.3677 10.1789 21.2766V21.266C10.1789 19.4844 10.6625 18.283 11.6116 17.483C12.6129 16.639 14.3883 16.0197 17.4487 16.0197C20.2571 16.0197 21.9154 16.5041 22.9071 17.2308C23.5684 17.7155 24.0412 18.3892 24.336 19.3588L21.3634 19.8026C21.1792 19.2883 20.8926 18.802 20.4321 18.408C19.5769 17.6762 18.431 17.532 17.2875 17.532C16.3268 17.532 15.3221 17.6495 14.5139 18.0947C14.0863 18.3303 13.6944 18.6685 13.4165 19.1366C13.1384 19.6051 13.0223 20.1232 13.0223 20.6441C13.0223 21.2345 13.1331 21.8353 13.4634 22.3804C13.7969 22.9309 14.2731 23.2908 14.7683 23.5368C15.6261 23.9629 16.8246 24.1665 18.0624 24.3768ZM8.44044 30.6203C8.49512 30.9449 8.56312 31.2531 8.64539 31.5454C9.53381 34.7015 12.0859 36 17.4891 36C24.5473 36 26.3221 33.162 26.3221 29.2746C26.3221 24.4927 22.0064 23.5987 18.4168 23.0154C15.6742 22.5488 14.4238 22.3157 14.4238 20.6441C14.4238 19.4001 15.5127 18.9335 17.2875 18.9335C19.2177 18.9335 19.9124 19.4221 20.186 20.8049C20.2211 20.9825 20.2493 21.1748 20.2722 21.3826L25.9994 20.5274C25.9754 20.3325 25.9471 20.1423 25.9143 19.957C25.8647 19.677 25.8048 19.4081 25.7339 19.15C24.9059 16.1375 22.5681 14.6182 17.4487 14.6182C11.0361 14.6182 8.77743 17.184 8.77743 21.266C8.7392 26.2923 13.2568 27.0321 16.8905 27.6271L16.8911 27.6272C17.0796 27.6581 17.2657 27.6886 17.4487 27.7193C19.7476 28.1473 20.6353 28.5356 20.6353 30.052C20.6353 31.2962 19.869 31.8404 17.5698 31.8404C15.0289 31.8404 14.2626 31.4128 13.94 29.3522L8.37418 30.1686C8.39359 30.3226 8.41564 30.4731 8.44044 30.6203Z" fill="#21125E"/>
</svg>
