<svg width="36" height="36" viewBox="0 0 36 36" fill="none" xmlns="http://www.w3.org/2000/svg">
<path fill-rule="evenodd" clip-rule="evenodd" d="M1.6875 1.68479H27.9844V5.33518H1.6875V1.68479ZM1.6875 7.01997V16.9883H27.9844V7.01997H1.6875ZM0 18.6731V0H29.6719V18.6731H18.9511L36 23.234L32.9386 34.6411L28.2669 33.3914L27.5668 36L5.66814 30.1417L8.72956 18.7346L13.4012 19.9843L13.7531 18.6731H0ZM31.7453 32.5777L28.7037 31.764L30.6283 24.5929L15.0312 20.4204L15.2945 19.4391L33.9332 24.4254L31.7453 32.5777ZM19.4557 13.4438L20.3879 14.0606C20.6553 14.2376 20.9747 14.3407 21.3232 14.3407C22.2607 14.3407 23.0207 13.5819 23.0207 12.6459C23.0207 11.7099 22.2607 10.9512 21.3232 10.9512C20.9747 10.9512 20.6553 11.0543 20.3879 11.2312L19.4557 11.848L18.5234 11.2312C18.256 11.0543 17.9367 10.9512 17.5881 10.9512C16.6506 10.9512 15.8906 11.7099 15.8906 12.6459C15.8906 13.5819 16.6506 14.3407 17.5881 14.3407C17.9367 14.3407 18.256 14.2376 18.5234 14.0606L19.4557 13.4438ZM19.4557 9.82684C18.9204 9.47265 18.2784 9.26637 17.5881 9.26637C15.7186 9.26637 14.2031 10.7794 14.2031 12.6459C14.2031 14.5124 15.7186 16.0255 17.5881 16.0255C18.2784 16.0255 18.9204 15.8192 19.4557 15.465C19.991 15.8192 20.633 16.0255 21.3232 16.0255C23.1927 16.0255 24.7082 14.5124 24.7082 12.6459C24.7082 10.7794 23.1927 9.26637 21.3232 9.26637C20.633 9.26637 19.991 9.47265 19.4557 9.82684ZM28.5615 25.7842L9.92281 20.798L7.73489 28.9503L26.3736 33.9366L28.5615 25.7842ZM11.7611 23.6391L10.7407 27.4415L12.3707 27.8775L13.3911 24.0752L11.7611 23.6391ZM22.9277 30.7018L23.9482 26.8994L25.5782 27.3354L24.5577 31.1378L22.9277 30.7018ZM17.4588 29.2387C18.5105 29.5201 19.5915 28.897 19.8733 27.847C20.1551 26.797 19.531 25.7177 18.4793 25.4364C17.4276 25.155 16.3466 25.7781 16.0648 26.8281C15.783 27.8781 16.4071 28.9574 17.4588 29.2387Z" fill="#21125E"/>
</svg>
