<svg width="36" height="36" viewBox="0 0 36 36" fill="none" xmlns="http://www.w3.org/2000/svg">
<rect width="36" height="36" />
<path fill-rule="evenodd" clip-rule="evenodd" d="M31.2805 0H4.71952L0 10.0639V10.2505C0 13.9436 1.62797 16.4474 3.79688 17.5734V36H32.3438V17.5673C34.4441 16.4186 36 13.9161 36 10.2505V10.0639L31.2805 0ZM5.48438 34.3191V18.1525C5.7871 18.208 6.09427 18.2403 6.40363 18.249C8.03459 18.2948 9.6641 17.6682 10.8798 16.3853C11.3373 15.9024 11.7297 15.334 12.0414 14.6843C12.3836 15.3512 12.8156 15.9337 13.3181 16.4276C14.6273 17.7143 16.3651 18.3502 18.0901 18.3502C19.815 18.3502 21.5528 17.7143 22.862 16.4276C23.3608 15.9373 23.7902 15.3597 24.1312 14.6989C24.4363 15.3437 24.8195 15.9092 25.2657 16.3909C26.4614 17.6815 28.0687 18.3222 29.6834 18.2827C30.0114 18.2747 30.3366 18.2394 30.6562 18.1772V34.3191H24.3281V20.4514H11.8125V34.3191H5.48438ZM13.5 34.3191H22.6406V22.1323H13.5V34.3191ZM11.1634 11.0662H1.7186C2.01289 14.8268 4.3426 16.5095 6.45119 16.5688C7.61206 16.6014 8.77439 16.1582 9.65259 15.2314C10.4882 14.3497 11.1086 12.9828 11.1634 11.0662ZM2.18081 9.38522L5.79377 1.68093H30.2062L33.8192 9.38522H2.18081ZM34.2826 11.0662H25.0167C25.0705 12.987 25.6825 14.3622 26.5059 15.251C27.3703 16.1841 28.5098 16.63 29.6419 16.6023C31.6931 16.5521 33.9956 14.884 34.2826 11.0662ZM23.321 11.0662H12.8591C12.9186 12.9624 13.5859 14.3294 14.5034 15.2311C15.4738 16.1849 16.7755 16.6693 18.0901 16.6693C19.4046 16.6693 20.7063 16.1849 21.6768 15.2311C22.5942 14.3294 23.2615 12.9624 23.321 11.0662Z" fill="#21125E"/>
</svg>
