<?xml version="1.0" encoding="UTF-8" standalone="no"?>
<svg
   width="1536"
   height="1024"
   viewBox="0 0 1536 1024"
   version="1.1"
   id="svg110"
   sodipodi:docname="account-pre-hijacking.svg"
   inkscape:version="1.4.3 (0d15f75, 2025-12-25)"
   xml:space="preserve"
   xmlns:inkscape="http://www.inkscape.org/namespaces/inkscape"
   xmlns:sodipodi="http://sodipodi.sourceforge.net/DTD/sodipodi-0.dtd"
   xmlns="http://www.w3.org/2000/svg"
   xmlns:svg="http://www.w3.org/2000/svg"><sodipodi:namedview
   id="namedview110"
   pagecolor="#ffffff"
   bordercolor="#000000"
   borderopacity="0.25"
   inkscape:showpageshadow="2"
   inkscape:pageopacity="0.0"
   inkscape:pagecheckerboard="0"
   inkscape:deskcolor="#d1d1d1"
   showguides="true"
   inkscape:zoom="1.6659888"
   inkscape:cx="1293.5261"
   inkscape:cy="546.22217"
   inkscape:window-width="2056"
   inkscape:window-height="1207"
   inkscape:window-x="0"
   inkscape:window-y="38"
   inkscape:window-maximized="0"
   inkscape:current-layer="g19"
   showgrid="true"><sodipodi:guide
     position="43.193538,893.25199"
     orientation="1,0"
     id="guide110"
     inkscape:locked="false" /><sodipodi:guide
     position="52.410886,528.68833"
     orientation="1,0"
     id="guide112"
     inkscape:locked="false" /><inkscape:grid
     id="grid20"
     units="px"
     originx="0"
     originy="0"
     spacingx="1"
     spacingy="1"
     empcolor="#0099e5"
     empopacity="0.30196078"
     color="#0099e5"
     opacity="0.14902"
     empspacing="5"
     enabled="true"
     visible="true" /></sodipodi:namedview><title
   id="title1">Account Pre-Hijacking via Anonymous Orders and Gift Cards</title><desc
   id="desc1">Editable vector diagram showing the legitimate user flow, account pre-hijacking attack flow, and password-verification mitigation.</desc><defs
   id="defs27"><style
     id="style1"><![CDATA[
      text { font-family: Arial, Helvetica, sans-serif; fill: #111827; }
      .title { font-size: 35px; font-weight: 700; }
      .subtitle { font-size: 24px; }
      .section-label { font-size: 16px; font-weight: 700; fill: #ffffff; }
      .step-no { font-size: 17px; font-weight: 700; fill: #ffffff; text-anchor: middle; dominant-baseline: middle; }
      .step-text { font-size: 16px; text-anchor: middle; }
      .email-green { font-size: 15px; fill: #18832a; font-weight: 700; text-anchor: middle; }
      .email-red { font-size: 15px; fill: #e3252b; font-weight: 700; text-anchor: middle; }
      .panel-title { font-size: 16px; font-weight: 700; }
      .panel-body { font-size: 15px; }
      .small { font-size: 13px; }
      .small-bold { font-size: 13px; font-weight: 700; }
      .impact { font-size: 14px; }
      .code { font-family: "Courier New", monospace; font-size: 13px; }
      .blue-note { font-size: 17px; fill: #1455b5; font-weight: 700; text-anchor: middle; }
      .icon { fill: none; stroke: #111111; stroke-width: 3; stroke-linecap: round; stroke-linejoin: round; }
      .icon-green { fill: none; stroke: #198f32; stroke-width: 3; stroke-linecap: round; stroke-linejoin: round; }
      .icon-red { fill: none; stroke: #e3262e; stroke-width: 3; stroke-linecap: round; stroke-linejoin: round; }
      .icon-blue { fill: none; stroke: #1558b0; stroke-width: 3; stroke-linecap: round; stroke-linejoin: round; }
    ]]></style><marker
     id="arrow-green"
     markerWidth="10"
     markerHeight="10"
     refX="9"
     refY="5"
     orient="auto"
     markerUnits="strokeWidth"><path
       d="M0,0 L10,5 L0,10 Z"
       fill="#23923a"
       id="path1" /></marker><marker
     id="arrow-red"
     markerWidth="10"
     markerHeight="10"
     refX="9"
     refY="5"
     orient="auto"
     markerUnits="strokeWidth"><path
       d="M0,0 L10,5 L0,10 Z"
       fill="#ed3037"
       id="path2" /></marker><marker
     id="arrow-gray"
     markerWidth="10"
     markerHeight="10"
     refX="9"
     refY="5"
     orient="auto"
     markerUnits="strokeWidth"><path
       d="M0,0 L10,5 L0,10 Z"
       fill="#3c4043"
       id="path3" /></marker><!-- Editable vector icon symbols --><symbol
     id="person"
     viewBox="0 0 70 70"><circle
       class="icon"
       cx="35"
       cy="20"
       r="14"
       id="circle3" /><path
       class="icon"
       d="M13 62c2-17 11-25 22-25s20 8 22 25z"
       id="path4" /></symbol><symbol
     id="person-plus"
     viewBox="0 0 80 70"><circle
       class="icon"
       cx="30"
       cy="20"
       r="14"
       id="circle4" /><path
       class="icon"
       d="M8 62c2-17 11-25 22-25s20 8 22 25z"
       id="path5" /><circle
       cx="62"
       cy="47"
       r="15"
       fill="#fff"
       stroke="#198f32"
       stroke-width="3"
       id="circle5" /><path
       d="M62 39v16M54 47h16"
       class="icon-green"
       id="path6" /></symbol><symbol
     id="cart"
     viewBox="0 0 60 60"><path
       class="icon"
       d="M8 12h8l5 27h26l5-20H18"
       id="path7" /><path
       class="icon"
       d="M23 25h24"
       id="path8" /><circle
       cx="26"
       cy="48"
       r="3"
       fill="#111"
       id="circle8" /><circle
       cx="45"
       cy="48"
       r="3"
       fill="#111"
       id="circle9" /></symbol><symbol
     id="envelope"
     viewBox="0 0 80 60"><rect
       class="icon"
       x="4"
       y="6"
       width="72"
       height="48"
       rx="2"
       id="rect9" /><path
       class="icon"
       d="M6 10l34 28 34-28M6 52l24-22M74 52L50 30"
       id="path9" /></symbol><symbol
     id="browser-check"
     viewBox="0 0 80 65"><rect
       class="icon"
       x="4"
       y="5"
       width="72"
       height="56"
       rx="4"
       id="rect10" /><path
       class="icon"
       d="M4 17h72"
       id="path10" /><circle
       cx="14"
       cy="11"
       r="2"
       fill="#111"
       id="circle10" /><circle
       cx="21"
       cy="11"
       r="2"
       fill="#111"
       id="circle11" /><circle
       cx="40"
       cy="39"
       r="14"
       fill="#fff"
       stroke="#198f32"
       stroke-width="3"
       id="circle12" /><path
       d="M33 39l5 5 10-11"
       class="icon-green"
       id="path12" /></symbol><symbol
     id="browser-red-check"
     viewBox="0 0 80 65"><rect
       class="icon"
       x="4"
       y="5"
       width="72"
       height="56"
       rx="4"
       id="rect1" /><path
       class="icon"
       d="M4 17h72"
       id="path11" /><circle
       cx="14"
       cy="11"
       r="2"
       fill="#111"
       id="circle13" /><circle
       cx="21"
       cy="11"
       r="2"
       fill="#111"
       id="circle14" /><circle
       cx="40"
       cy="39"
       r="14"
       fill="#ffffff"
       stroke="#e3262e"
       stroke-width="3"
       id="circle73" /><path
       d="M33 39l5 5 10-11"
       class="icon-red"
       id="path14" /></symbol><symbol
     id="database-user"
     viewBox="0 0 84 70"><ellipse
       class="icon"
       cx="36"
       cy="13"
       rx="26"
       ry="9"
       id="ellipse12" /><path
       class="icon"
       d="M10 13v35c0 5 12 9 26 9 8 0 15-1 20-4M62 13v21"
       id="path13" /><path
       class="icon"
       d="M10 31c0 5 12 9 26 9 10 0 18-2 23-5"
       id="path15" /><circle
       cx="66"
       cy="49"
       r="15"
       fill="#fff"
       stroke="#111"
       stroke-width="3"
       id="circle15" /><circle
       cx="66"
       cy="44"
       r="4"
       fill="none"
       stroke="#111"
       stroke-width="2"
       id="circle16" /><path
       d="M58 56c2-5 5-7 8-7s6 2 8 7"
       fill="none"
       stroke="#111"
       stroke-width="2"
       id="path16" /></symbol><symbol
     id="database-attacker"
     viewBox="0 0 84 70"><ellipse
       class="icon"
       cx="36"
       cy="13"
       rx="26"
       ry="9"
       id="ellipse15" /><path
       class="icon"
       d="M10 13v35c0 5 12 9 26 9 8 0 15-1 20-4M62 13v21"
       id="path17" /><path
       class="icon"
       d="M10 31c0 5 12 9 26 9 10 0 18-2 23-5"
       id="path18" /><circle
       cx="66"
       cy="49"
       r="15"
       fill="#fff"
       stroke="#e3262e"
       stroke-width="3"
       id="circle17" /><circle
       cx="61"
       cy="45"
       r="2"
       fill="#e3262e"
       id="circle18" /><circle
       cx="71"
       cy="45"
       r="2"
       fill="#e3262e"
       id="circle19" /><path
       d="M60 54c4-3 8-3 12 0"
       fill="none"
       stroke="#e3262e"
       stroke-width="2"
       id="path19" /></symbol><symbol
     id="attacker"
     viewBox="0 0 80 70"><path
       d="M14 62c1-18 9-33 26-33s25 15 26 33z"
       fill="#27272a"
       id="path20" /><path
       d="M24 34c3-19 8-27 16-27s13 8 16 27"
       fill="#27272a"
       id="path21" /><ellipse
       cx="40"
       cy="31"
       rx="14"
       ry="11"
       fill="#fff"
       stroke="#111"
       stroke-width="2"
       id="ellipse21" /><path
       d="M26 28h28M33 29l4 4M47 29l-4 4"
       class="icon"
       stroke-width="2"
       id="path22" /><path
       d="M34 38c4 3 8 3 12 0"
       class="icon"
       stroke-width="2"
       id="path23" /><rect
       x="25"
       y="47"
       width="30"
       height="18"
       rx="2"
       fill="#111"
       stroke="#111"
       id="rect23" /><circle
       cx="40"
       cy="56"
       r="4"
       fill="#e3262e"
       id="circle23" /></symbol><symbol
     id="shield-lock"
     viewBox="0 0 72 72"><path
       d="M36 5l25 10v18c0 17-10 28-25 34C21 61 11 50 11 33V15z"
       fill="none"
       stroke="#1558b0"
       stroke-width="4"
       id="path24" /><rect
       x="29"
       y="32"
       width="14"
       height="15"
       rx="2"
       fill="#1558b0"
       id="rect24" /><path
       d="M32 32v-4a4 4 0 018 0v4"
       fill="none"
       stroke="#1558b0"
       stroke-width="3"
       id="path25" /><circle
       cx="36"
       cy="39"
       r="2"
       fill="#fff"
       id="circle25" /></symbol><symbol
     id="user-lock"
     viewBox="0 0 80 70"><circle
       class="icon"
       cx="31"
       cy="19"
       r="13"
       id="circle26" /><path
       class="icon"
       d="M9 60c2-16 10-23 22-23 8 0 14 3 18 9"
       id="path26" /><circle
       cx="60"
       cy="49"
       r="14"
       fill="#fff"
       stroke="#111"
       stroke-width="2.5"
       id="circle27" /><rect
       x="54"
       y="48"
       width="12"
       height="10"
       rx="2"
       fill="none"
       stroke="#1558b0"
       stroke-width="2.5"
       id="rect27" /><path
       d="M56 48v-3a4 4 0 018 0v3"
       fill="none"
       stroke="#1558b0"
       stroke-width="2.5"
       id="path27" /></symbol></defs><rect
   width="1536"
   height="1024"
   fill="#ffffff"
   id="rect28" /><!-- Header --><text
   class="title"
   x="768"
   y="48"
   text-anchor="middle"
   id="text28">Account Pre-Hijacking via Anonymous Orders &amp; Gift Cards</text><text
   class="subtitle"
   x="768"
   y="86"
   text-anchor="middle"
   id="text29">Merging anonymous orders &amp; gift cards into an attacker-controlled account</text><!-- LEGITIMATE FLOW --><rect
   x="20"
   y="138"
   width="1118"
   height="292"
   rx="14"
   fill="#fff"
   stroke="#18832a"
   stroke-width="1.5"
   id="rect29" /><g
   id="g110"
   transform="translate(-15.176108,14.008715)"><rect
     x="57"
     y="102"
     width="167.13345"
     height="36.544338"
     rx="5"
     fill="#218c2f"
     id="rect30" /><text
     class="section-label"
     x="67.785782"
     y="126.84811"
     text-anchor="middle"
     id="text30"
     style="text-align:start;text-anchor:start">LEGITIMATE USER</text></g><!-- step 1 --><circle
   cx="121"
   cy="183"
   r="15"
   fill="#218c2f"
   id="circle30" /><text
   class="step-no"
   x="121"
   y="183"
   id="text31">1</text><use
   href="#person"
   x="72"
   y="207"
   width="70"
   height="70"
   id="use31" /><use
   href="#cart"
   x="137"
   y="224"
   width="54"
   height="54"
   id="use32" /><text
   class="step-text"
   x="121"
   y="310"
   id="text34"><tspan
     x="121"
     id="tspan32">User places orders</tspan><tspan
     x="121"
     dy="22"
     id="tspan33">or uses gift cards</tspan><tspan
     x="121"
     dy="22"
     id="tspan34">as a guest</tspan></text><text
   class="email-green"
   x="121"
   y="386"
   id="text35">guest@example.com</text><line
   x1="212"
   y1="243"
   x2="280"
   y2="243"
   stroke="#23923a"
   stroke-width="3"
   marker-end="url(#arrow-green)"
   id="line35" /><!-- step 2 --><circle
   cx="347"
   cy="183"
   r="15"
   fill="#218c2f"
   id="circle35" /><text
   class="step-no"
   x="347"
   y="183"
   id="text36">2</text><use
   href="#person-plus"
   x="298"
   y="207"
   width="80"
   height="70"
   id="use36" /><text
   class="step-text"
   x="347"
   y="310"
   id="text38"><tspan
     x="347"
     id="tspan36">User creates an</tspan><tspan
     x="347"
     dy="22"
     id="tspan37">account with the</tspan><tspan
     x="347"
     dy="22"
     id="tspan38">same email</tspan></text><text
   class="email-green"
   x="347"
   y="386"
   id="text39">guest@example.com</text><line
   x1="424"
   y1="243"
   x2="492"
   y2="243"
   stroke="#23923a"
   stroke-width="3"
   marker-end="url(#arrow-green)"
   id="line39" /><!-- step 3 --><circle
   cx="565"
   cy="183"
   r="15"
   fill="#218c2f"
   id="circle39" /><text
   class="step-no"
   x="565"
   y="183"
   id="text40">3</text><use
   href="#envelope"
   x="525"
   y="215"
   width="80"
   height="60"
   id="use40" /><text
   class="step-text"
   x="565"
   y="312"
   id="text42"><tspan
     x="565"
     id="tspan40">Saleor sends</tspan><tspan
     x="565"
     dy="22"
     id="tspan41">account confirmation</tspan><tspan
     x="565"
     dy="22"
     id="tspan42">link to the email</tspan></text><line
   x1="637"
   y1="243"
   x2="705"
   y2="243"
   stroke="#23923a"
   stroke-width="3"
   marker-end="url(#arrow-green)"
   id="line42" /><!-- step 4 --><circle
   cx="782"
   cy="183"
   r="15"
   fill="#218c2f"
   id="circle42" /><text
   class="step-no"
   x="782"
   y="183"
   id="text43">4</text><use
   href="#browser-check"
   x="742"
   y="212"
   width="80"
   height="65"
   id="use43" /><text
   class="step-text"
   x="782"
   y="314"
   id="text44"><tspan
     x="782"
     id="tspan43">User clicks the</tspan><tspan
     x="782"
     dy="22"
     id="tspan44">confirmation link</tspan></text><line
   x1="850"
   y1="243"
   x2="928"
   y2="243"
   stroke="#23923a"
   stroke-width="3"
   marker-end="url(#arrow-green)"
   id="line44" /><!-- step 5 --><circle
   cx="998"
   cy="183"
   r="15"
   fill="#218c2f"
   id="circle44" /><text
   class="step-no"
   x="998"
   y="183"
   id="text45">5</text><use
   href="#database-user"
   x="956"
   y="210"
   width="84"
   height="70"
   id="use45" /><text
   class="step-text"
   x="998"
   y="314"
   id="text47"><tspan
     x="998"
     id="tspan45">Saleor merges existing</tspan><tspan
     x="998"
     dy="22"
     id="tspan46">orders &amp; gift cards</tspan><tspan
     x="998"
     dy="22"
     id="tspan47">into the new account</tspan></text><line
   x1="1138"
   y1="251"
   x2="1186"
   y2="251"
   stroke="#3c4043"
   stroke-width="3"
   marker-end="url(#arrow-gray)"
   id="line47" /><!-- Legitimate outcome --><g
   id="g19"
   transform="translate(0.53646817,-36.737447)"><rect
     x="1200"
     y="138"
     width="300"
     height="371"
     rx="13"
     fill="#ffffff"
     stroke="#18832a"
     stroke-width="1.4"
     id="rect47" /><circle
     cx="1255"
     cy="176"
     r="22"
     fill="#218c2f"
     id="circle47" /><circle
     cx="1255"
     cy="168"
     r="7"
     fill="#ffffff"
     id="circle48" /><path
     d="m 1243,187 c 1,-10 5,-14 12,-14 7,0 11,4 12,14 z"
     fill="#ffffff"
     id="path48" /><text
     class="panel-title"
     x="1290"
     y="181"
     fill="#116d22"
     id="text48">LEGITIMATE OUTCOME</text><line
     x1="1220"
     y1="213"
     x2="1480"
     y2="213"
     stroke="#18832a"
     id="line48" /><circle
     cx="1240"
     cy="256"
     r="19"
     fill="#218c2f"
     id="circle49" /><path
     d="m 1231,256 6,6 12,-14"
     fill="none"
     stroke="#ffffff"
     stroke-width="4"
     id="path49" /><text
     class="panel-body"
     x="1276"
     y="247"
     id="text51"><tspan
       x="1276"
       id="tspan49">User gains access to their</tspan><tspan
       x="1276"
       dy="21"
       id="tspan50">order history and gift cards</tspan><tspan
       x="1276"
       dy="21"
       id="tspan51">in their account.</tspan></text><rect
     x="1230"
     y="312"
     width="240"
     height="181"
     rx="12"
     fill="#eef8ef"
     id="rect51" /><text
     class="small-bold"
     x="1250"
     y="342"
     id="text52">Objects associated:</text><g
     id="g2"
     transform="matrix(0.45040983,0,0,0.44317032,692.61538,211.03151)"><path
       d="m 1236.9635,350.23745 h 8 l 5,27 h 26 l 5,-20 h -34"
       stroke="currentColor"
       stroke-width="3"
       stroke-linecap="round"
       stroke-linejoin="round"
       id="path1-3" /><circle
       cx="1254.9635"
       cy="386.23746"
       r="3"
       fill="currentColor"
       id="circle2" /><circle
       cx="1273.9635"
       cy="386.23746"
       r="3"
       fill="currentColor"
       id="circle3-0" /></g><text
     class="panel-body"
     x="1284"
     y="381"
     id="text53">Orders</text><text
     class="panel-body"
     x="1284"
     y="412"
     id="text54">Gift cards</text><path
     d="m 1260,430 c -5,0 -8,4 -8,8 0,6 8,14 8,14 0,0 8,-8 8,-14 0,-4 -3,-8 -8,-8 z"
     class="icon"
     stroke-width="1.6"
     id="path54" /><circle
     cx="1260"
     cy="438"
     r="2"
     fill="#111111"
     id="circle54" /><text
     class="panel-body"
     x="1284"
     y="444"
     id="text55">Addresses</text><circle
     cx="1254"
     cy="470"
     r="2"
     fill="#111111"
     id="circle55" /><circle
     cx="1261"
     cy="470"
     r="2"
     fill="#111111"
     id="circle56" /><circle
     cx="1268"
     cy="470"
     r="2"
     fill="#111111"
     id="circle57" /><text
     class="panel-body"
     x="1284"
     y="476"
     id="text57">Other account data</text></g><!-- ATTACKER FLOW --><rect
   x="20"
   y="492"
   width="1118"
   height="316"
   rx="14"
   fill="#fff"
   stroke="#ef3038"
   stroke-width="1.5"
   id="rect57" /><g
   id="g111"
   transform="translate(-15.176108,10.506536)"><rect
     x="57"
     y="463"
     width="332.76239"
     height="36"
     rx="4.1909618"
     fill="#e92f35"
     id="rect58"
     style="stroke-width:0.915529" /><text
     class="section-label"
     x="68.217133"
     y="485.83261"
     text-anchor="middle"
     id="text58"
     dx="0 0 0 0 0 0 0"
     style="text-align:start;text-anchor:start">ATTACKER (ACCOUNT PRE-HIJACKING)</text></g><!-- attacker step 1 --><circle
   cx="119"
   cy="539"
   r="15"
   fill="#e92f35"
   id="circle58" /><text
   class="step-no"
   x="119"
   y="539"
   id="text59">1</text><use
   href="#attacker"
   x="78"
   y="563"
   width="80"
   height="70"
   id="use59" /><text
   class="step-text"
   x="119"
   y="664"
   id="text61"><tspan
     x="119"
     id="tspan59">Attacker creates an</tspan><tspan
     x="119"
     dy="20"
     id="tspan60">account using the</tspan><tspan
     x="119"
     dy="20"
     id="tspan61">victim's email</tspan></text><text
   class="email-red"
   x="119"
   y="730"
   id="text62">victim@example.com</text><rect
   x="32"
   y="741"
   width="177"
   height="52"
   rx="7"
   fill="#ffe2e2"
   id="rect62" /><text
   class="small"
   x="120"
   y="765"
   text-anchor="middle"
   id="text63"><tspan
     x="120"
     id="tspan62">Attacker sets a password</tspan><tspan
     x="120"
     dy="18"
     id="tspan63">controlled by them</tspan></text><line
   x1="188"
   y1="592"
   x2="242"
   y2="592"
   stroke="#ed3037"
   stroke-width="3"
   marker-end="url(#arrow-red)"
   id="line63" /><!-- attacker step 2 --><circle
   cx="316"
   cy="539"
   r="15"
   fill="#e92f35"
   id="circle63" /><text
   class="step-no"
   x="316"
   y="539"
   id="text64">2</text><use
   href="#envelope"
   x="276"
   y="564"
   width="80"
   height="60"
   id="use64" /><text
   class="step-text"
   x="316"
   y="664"
   id="text66"><tspan
     x="316"
     id="tspan64">Saleor sends</tspan><tspan
     x="316"
     dy="20"
     id="tspan65">account confirmation</tspan><tspan
     x="316"
     dy="20"
     id="tspan66">link to the victim</tspan></text><text
   class="email-red"
   x="316"
   y="730"
   id="text67">victim@example.com</text><line
   x1="386"
   y1="592"
   x2="430"
   y2="592"
   stroke="#ed3037"
   stroke-width="3"
   marker-end="url(#arrow-red)"
   id="line67" /><!-- attacker step 3 --><circle
   cx="505"
   cy="539"
   r="15"
   fill="#e92f35"
   id="circle67" /><text
   class="step-no"
   x="505"
   y="539"
   id="text68">3</text><use
   href="#attacker"
   x="465"
   y="563"
   width="80"
   height="70"
   id="use68" /><text
   class="step-text"
   x="505"
   y="664"
   id="text70"><tspan
     x="505"
     id="tspan68">Attacker tricks or</tspan><tspan
     x="505"
     dy="20"
     id="tspan69">induces the victim to</tspan><tspan
     x="505"
     dy="20"
     id="tspan70">click the link</tspan></text><rect
   x="418"
   y="724"
   width="173"
   height="55"
   rx="7"
   fill="#ffe2e2"
   id="rect70" /><text
   class="small"
   x="505"
   y="747"
   text-anchor="middle"
   id="text72"><tspan
     x="505"
     id="tspan71">e.g. fake email creating</tspan><tspan
     x="505"
     dy="18"
     id="tspan72">curiosity or urgency</tspan></text><line
   x1="577"
   y1="592"
   x2="627"
   y2="592"
   stroke="#ed3037"
   stroke-width="3"
   marker-end="url(#arrow-red)"
   id="line72" /><!-- attacker step 4 --><circle
   cx="704"
   cy="539"
   r="15"
   fill="#e92f35"
   id="circle72" /><text
   class="step-no"
   x="704"
   y="539"
   id="text73">4</text><use
   href="#browser-red-check"
   x="664"
   y="561"
   width="80"
   height="65"
   id="use73" />


     id=&quot;path73&quot; /&gt;
  <text
   class="step-text"
   x="704"
   y="664"
   id="text75"
   style="font-style:normal;font-variant:normal;font-weight:normal;font-stretch:normal;font-size:16px;font-family:Arial, Helvetica, sans-serif;-inkscape-font-specification:'Arial, Helvetica, sans-serif, Normal';font-variant-ligatures:normal;font-variant-caps:normal;font-variant-numeric:normal;font-variant-east-asian:normal;text-anchor:middle;white-space:pre;inline-size:157.654;display:inline;fill:#111827"
   xml:space="preserve"><tspan
     x="704"
     y="664"
     id="tspan11">Victim clicks the<tspan
   y="664"
   id="tspan12"> </tspan></tspan><tspan
     x="704"
     y="684.00002"
     id="tspan13">confirmation link<tspan
   y="684.00002"
   id="tspan14"> </tspan></tspan><tspan
     x="704"
     y="704.00002"
     id="tspan15">(thinking it's<tspan
   y="704.00002"
   id="tspan16"> </tspan></tspan><tspan
     x="704"
     y="724.00002"
     id="tspan17">legitimate)</tspan></text><line
   x1="763"
   y1="592"
   x2="808"
   y2="592"
   stroke="#ed3037"
   stroke-width="3"
   marker-end="url(#arrow-red)"
   id="line75" /><!-- attacker step 5 --><circle
   cx="870"
   cy="539"
   r="15"
   fill="#e92f35"
   id="circle75" /><text
   class="step-no"
   x="870"
   y="539"
   id="text76">5</text><use
   href="#database-attacker"
   x="828"
   y="560"
   width="84"
   height="70"
   id="use76" /><text
   class="step-text"
   x="870"
   y="664"
   id="text79"><tspan
     x="870"
     id="tspan76">Saleor merges existing</tspan><tspan
     x="870"
     dy="20"
     id="tspan77">orders &amp; gift cards</tspan><tspan
     x="870"
     dy="20"
     id="tspan78">into the attacker's</tspan><tspan
     x="870"
     dy="20"
     id="tspan79">account</tspan></text><line
   x1="936"
   y1="592"
   x2="980"
   y2="592"
   stroke="#ed3037"
   stroke-width="3"
   marker-end="url(#arrow-red)"
   id="line79" /><!-- attacker step 6 --><circle
   cx="1034"
   cy="539"
   r="15"
   fill="#e92f35"
   id="circle79" /><text
   class="step-no"
   x="1034"
   y="539"
   id="text80">6</text><use
   href="#attacker"
   x="994"
   y="563"
   width="80"
   height="70"
   id="use80" /><text
   class="step-text"
   x="1034"
   y="664"
   id="text82"><tspan
     x="1034"
     id="tspan80">Attacker logs in with</tspan><tspan
     x="1034"
     dy="20"
     id="tspan81">their password and</tspan><tspan
     x="1034"
     dy="20"
     id="tspan82">gains access</tspan></text><rect
   x="951"
   y="724"
   width="174"
   height="55"
   rx="7"
   fill="#ffe2e2"
   id="rect82" /><text
   class="small"
   x="1038"
   y="747"
   text-anchor="middle"
   id="text84"
   style="font-style:normal;font-variant:normal;font-weight:normal;font-stretch:normal;font-size:13px;font-family:Arial, Helvetica, sans-serif;-inkscape-font-specification:'Arial, Helvetica, sans-serif, Normal';font-variant-ligatures:normal;font-variant-caps:normal;font-variant-numeric:normal;font-variant-east-asian:normal;text-anchor:middle;white-space:pre;inline-size:151.561;display:inline;fill:#111827"
   xml:space="preserve"><tspan
     x="1038"
     y="747"
     id="tspan18">Access to victim's orders,<tspan
   y="747"
   id="tspan19"> </tspan></tspan><tspan
     x="1038"
     y="763.25003"
     id="tspan20">gift cards, and data</tspan></text><line
   x1="1138"
   y1="600"
   x2="1186"
   y2="600"
   stroke="#cf252d"
   stroke-width="3"
   marker-end="url(#arrow-red)"
   id="line84" /><!-- Attacker outcome --><g
   id="g20"
   transform="translate(1.1429652,-38.416881)"><rect
     x="1200"
     y="531"
     width="300"
     height="316"
     rx="13"
     fill="#ffffff"
     stroke="#ef3038"
     stroke-width="1.4"
     id="rect84" /><circle
     cx="1255"
     cy="568"
     r="22"
     fill="#e92f35"
     id="circle84" /><path
     d="m 1242,579 c 1,-12 5,-18 13,-18 8,0 12,6 13,18"
     fill="#ffffff"
     id="path84" /><circle
     cx="1255"
     cy="557"
     r="7"
     fill="#ffffff"
     id="circle85" /><text
     class="panel-title"
     x="1290"
     y="573"
     fill="#d9252d"
     id="text85">ATTACKER OUTCOME</text><line
     x1="1220"
     y1="602"
     x2="1480"
     y2="602"
     stroke="#ef3038"
     id="line85" /><path
     d="m 1240,620 20,37 h -40 z"
     fill="#d9252d"
     id="path85" /><rect
     x="1237"
     y="633"
     width="6"
     height="14"
     fill="#ffffff"
     id="rect85" /><circle
     cx="1240"
     cy="652"
     r="3"
     fill="#ffffff"
     id="circle86" /><text
     class="panel-body"
     x="1276"
     y="631"
     id="text89"><tspan
       x="1276"
       id="tspan86">Attacker gains unauthorized</tspan><tspan
       x="1276"
       dy="21"
       id="tspan87">access to the victim’s</tspan><tspan
       x="1276"
       dy="21"
       id="tspan88">orders, gift cards, and</tspan><tspan
       x="1276"
       dy="21"
       id="tspan89">personal data.</tspan></text><rect
     x="1230"
     y="707.58417"
     width="240"
     height="126.41584"
     rx="12"
     fill="#ffebeb"
     id="rect89"
     style="stroke-width:1.04393" /><g
     id="g18"
     transform="translate(0,-9.374254)"><text
       class="small-bold"
       x="1250"
       y="744"
       fill="#d9252d"
       id="text90">Impact:</text><text
       class="impact"
       x="1250"
       y="766"
       id="text93"><tspan
         x="1250"
         id="tspan90">• Order history leakage</tspan><tspan
         x="1250"
         dy="21"
         id="tspan91">• Gift card balance theft</tspan><tspan
         x="1250"
         dy="21"
         id="tspan92">• Personal data exposure</tspan><tspan
         x="1250"
         dy="21"
         id="tspan93">• Account takeover</tspan></text></g></g><!-- MITIGATION --><rect
   x="20"
   y="850"
   width="1480"
   height="156"
   rx="14"
   fill="#fff"
   stroke="#1558b0"
   stroke-width="1.4"
   id="rect93" /><g
   id="g112"
   transform="translate(-14.008715,7.0043576)"><rect
     x="57"
     y="826"
     width="203.01228"
     height="36"
     rx="4.6777024"
     fill="#1558b0"
     id="rect94"
     style="stroke-width:0.967233" /><text
     class="section-label"
     x="158.37424"
     y="849.26379"
     text-anchor="middle"
     id="text94">MITIGATION IN SALEOR</text></g><use
   href="#shield-lock"
   x="48"
   y="879"
   width="64"
   height="64"
   id="use94" /><text
   class="panel-body"
   x="120"
   y="904"
   id="text96"><tspan
     x="120"
     id="tspan94">Saleor requires password</tspan><tspan
     x="120"
     dy="20"
     id="tspan95">verification when confirming</tspan><tspan
     x="120"
     dy="20"
     id="tspan96">an account.</tspan></text><rect
   x="330"
   y="871"
   width="234"
   height="84"
   rx="8"
   fill="#fbfbfc"
   stroke="#a9b2bf"
   id="rect96" /><g
   id="g1"
   transform="translate(-3.333081)"><text
     class="code"
     x="346"
     y="895"
     id="text98"><tspan
       fill="#1253b2"
       font-weight="700"
       id="tspan97">confirmAccount</tspan><tspan
       id="tspan98">(</tspan></text><text
     class="code"
     x="360"
     y="910"
     id="text99">email: &lt;their-email&gt;,</text><text
     class="code"
     x="360"
     y="925"
     id="text100"
     style="font-style:normal;font-variant:normal;font-weight:bold;font-stretch:normal;font-family:'Courier New', monospace;-inkscape-font-specification:'Courier New, monospace Bold'"><tspan
       fill="#1253b2"
       font-weight="700"
       id="tspan99"
       style="font-style:normal;font-variant:normal;font-weight:bold;font-stretch:normal;font-family:'Courier New', monospace;-inkscape-font-specification:'Courier New, monospace Bold'">password:</tspan><tspan
       fill="#a51da8"
       id="tspan100"
       style="font-style:normal;font-variant:normal;font-weight:bold;font-stretch:normal;font-family:'Courier New', monospace;-inkscape-font-specification:'Courier New, monospace Bold'">&lt;their-password&gt;</tspan></text><text
     class="code"
     x="346"
     y="940"
     id="text101">)</text></g><line
   x1="577"
   y1="909"
   x2="610"
   y2="909"
   stroke="#3c4043"
   stroke-width="3"
   marker-end="url(#arrow-gray)"
   id="line101" /><text
   class="panel-body"
   x="624"
   y="904"
   id="text103"><tspan
     x="624"
     id="tspan101">The user must provide the</tspan><tspan
     x="624"
     dy="20"
     id="tspan102">account password when</tspan><tspan
     x="624"
     dy="20"
     id="tspan103">confirming.</tspan></text><line
   x1="818"
   y1="909"
   x2="850"
   y2="909"
   stroke="#3c4043"
   stroke-width="3"
   marker-end="url(#arrow-gray)"
   id="line103" /><use
   href="#user-lock"
   x="866"
   y="875"
   width="78"
   height="70"
   id="use103" /><text
   class="panel-body"
   x="958"
   y="904"
   id="text106"><tspan
     x="958"
     id="tspan104">Victim doesn't know the</tspan><tspan
     x="958"
     dy="20"
     id="tspan105">attacker's password and</tspan><tspan
     x="958"
     dy="20"
     id="tspan106">cannot confirm the account.</tspan></text><line
   x1="1148"
   y1="909"
   x2="1183"
   y2="909"
   stroke="#3c4043"
   stroke-width="3"
   marker-end="url(#arrow-gray)"
   id="line106" /><use
   href="#shield-lock"
   x="1202"
   y="881"
   width="57"
   height="57"
   id="use106" /><text
   class="panel-body"
   x="1271"
   y="904"
   id="text109"><tspan
     x="1271"
     id="tspan107">Victim must reset their</tspan><tspan
     x="1271"
     dy="20"
     id="tspan108">password, preventing the</tspan><tspan
     x="1271"
     dy="20"
     id="tspan109">attacker from gaining access.</tspan></text><text
   class="blue-note"
   x="768"
   y="992"
   id="text110">Knowing the email and clicking the link is not enough to activate an account whose password is controlled by an attacker.</text><g
   style="fill:none;stroke:currentColor;stroke-width:2;stroke-linecap:round;stroke-linejoin:round"
   id="g4"
   transform="translate(1248.1452,357.57511)"><rect
     x="3"
     y="5"
     width="18"
     height="14"
     rx="2"
     id="rect1-7" /><path
     d="M 3,10 H 21"
     id="path1-0" /><path
     d="M 12,5 V 19"
     id="path2-3" /><path
     d="M 12,10 H 9.5 a 2,2 0 1 1 2,-2 v 2 z"
     id="path3-9" /><path
     d="m 12,10 h 2.5 a 2,2 0 1 0 -2,-2 v 2 z"
     id="path4-9" /></g></svg>
